<svg xmlns="http://www.w3.org/2000/svg" xmlns:xlink="http://www.w3.org/1999/xlink" viewBox="0 0 665.78 514.96"><defs><style>.cls-1{fill:none;}.cls-2{isolation:isolate;}.cls-3{fill:#9a93ba;}.cls-4{fill:#f6ce6d;}.cls-5{fill:#cae7f8;}.cls-6{fill:#9ed2b3;}.cls-7{fill:#f2a9bd;}.cls-8{fill:#be8dbd;}.cls-9{fill:#262832;}.cls-10{fill:#655092;}.cls-11{fill:#eead8c;}.cls-12{fill:#232b49;}.cls-13{fill:#333a6b;}.cls-14{fill:#e2a388;}.cls-15{fill:#fff;}.cls-16{fill:#7d5451;}.cls-17{fill:#666;}.cls-18{fill:url(#linear-gradient);}.cls-19{clip-path:url(#clip-path);}.cls-20{fill:url(#linear-gradient-2);}.cls-21{fill:url(#linear-gradient-3);}.cls-22{fill:url(#linear-gradient-4);}.cls-23{fill:url(#linear-gradient-5);}.cls-24{fill:url(#radial-gradient);}.cls-25{fill:url(#radial-gradient-2);}.cls-26{fill:url(#linear-gradient-6);}.cls-27{fill:url(#radial-gradient-3);}.cls-28{fill:url(#radial-gradient-4);}.cls-29{fill:url(#linear-gradient-7);}.cls-30{fill:url(#linear-gradient-8);}.cls-31{fill:url(#radial-gradient-5);}.cls-32{fill:url(#radial-gradient-6);}.cls-33{fill:url(#radial-gradient-7);}.cls-34{fill:url(#radial-gradient-8);}.cls-35{fill:url(#radial-gradient-9);}.cls-36{fill:url(#radial-gradient-10);}.cls-37{fill:url(#radial-gradient-11);}.cls-38{fill:url(#linear-gradient-9);}.cls-39{fill:url(#linear-gradient-10);}.cls-40{fill:url(#linear-gradient-11);}.cls-41{fill:url(#linear-gradient-12);}.cls-42{fill:url(#linear-gradient-13);}.cls-43{fill:url(#linear-gradient-14);}.cls-44{fill:url(#linear-gradient-15);}.cls-45{fill:url(#linear-gradient-16);}.cls-46{fill:url(#linear-gradient-17);}.cls-47{fill:url(#linear-gradient-18);}.cls-48{fill:#23221e;}.cls-49{fill:#d69d7b;}.cls-50{fill:#e8a384;}.cls-51{fill:#1e3a67;}.cls-52{fill:#3a4d7b;}.cls-53{fill:#da9b81;}.cls-54{fill:#f7d98c;}.cls-55{fill:#eda385;}.cls-56{fill:#412410;}.cls-57{fill:#211e22;}.cls-58{fill:#e8a68c;}.cls-59{fill:#21416e;}.cls-60{fill:#224b8a;}.cls-61{fill:#82324e;}.cls-62{fill:#dfa994;}.cls-63{fill:#7d4d31;}.cls-64{fill:#2b1711;}.cls-65{clip-path:url(#clip-path-2);}.cls-66{mix-blend-mode:multiply;fill:url(#radial-gradient-12);}.cls-67{fill:url(#linear-gradient-19);}.cls-68{fill:url(#linear-gradient-20);}.cls-69{fill:url(#linear-gradient-21);}.cls-70{fill:url(#linear-gradient-22);}.cls-71{fill:url(#linear-gradient-23);}.cls-72{fill:url(#radial-gradient-13);}.cls-73{fill:url(#radial-gradient-14);}.cls-74{fill:url(#linear-gradient-24);}.cls-75{fill:url(#radial-gradient-15);}.cls-76{fill:url(#radial-gradient-16);}.cls-77{fill:url(#linear-gradient-25);}.cls-78{fill:url(#linear-gradient-26);}.cls-79{fill:url(#radial-gradient-17);}.cls-80{fill:url(#radial-gradient-18);}.cls-81{fill:url(#radial-gradient-19);}.cls-82{fill:url(#radial-gradient-20);}.cls-83{fill:url(#radial-gradient-21);}.cls-84{fill:url(#radial-gradient-22);}.cls-85{fill:url(#radial-gradient-23);}.cls-86{fill:url(#linear-gradient-27);}.cls-87{fill:url(#linear-gradient-28);}.cls-88{fill:url(#linear-gradient-29);}.cls-89{fill:url(#linear-gradient-30);}.cls-90{fill:url(#linear-gradient-31);}.cls-91{fill:url(#linear-gradient-32);}.cls-92{fill:#1a1a1a;}.cls-93{clip-path:url(#clip-path-3);}.cls-94{fill:url(#linear-gradient-33);}.cls-95{fill:url(#linear-gradient-34);}.cls-96{fill:url(#linear-gradient-35);}.cls-97{fill:url(#linear-gradient-36);}.cls-98{fill:url(#linear-gradient-37);}.cls-99{fill:url(#radial-gradient-24);}.cls-100{fill:url(#radial-gradient-25);}.cls-101{fill:url(#linear-gradient-38);}.cls-102{fill:url(#radial-gradient-26);}.cls-103{fill:url(#radial-gradient-27);}.cls-104{fill:url(#linear-gradient-39);}.cls-105{fill:url(#linear-gradient-40);}.cls-106{fill:url(#radial-gradient-28);}.cls-107{fill:url(#radial-gradient-29);}.cls-108{fill:url(#radial-gradient-30);}.cls-109{fill:url(#radial-gradient-31);}.cls-110{fill:url(#radial-gradient-32);}.cls-111{fill:url(#radial-gradient-33);}.cls-112{fill:url(#radial-gradient-34);}.cls-113{fill:url(#linear-gradient-41);}.cls-114{fill:url(#linear-gradient-42);}.cls-115{fill:url(#linear-gradient-43);}.cls-116{fill:url(#linear-gradient-44);}.cls-117{fill:url(#linear-gradient-45);}.cls-118{fill:url(#linear-gradient-46);}.cls-119{clip-path:url(#clip-path-4);}.cls-120{fill:url(#linear-gradient-47);}.cls-121{fill:url(#linear-gradient-48);}.cls-122{fill:url(#linear-gradient-49);}.cls-123{fill:url(#linear-gradient-50);}.cls-124{fill:url(#linear-gradient-51);}.cls-125{fill:url(#radial-gradient-35);}.cls-126{fill:url(#radial-gradient-36);}.cls-127{fill:url(#linear-gradient-52);}.cls-128{fill:url(#radial-gradient-37);}.cls-129{fill:url(#radial-gradient-38);}.cls-130{fill:url(#linear-gradient-53);}.cls-131{fill:url(#linear-gradient-54);}.cls-132{fill:url(#radial-gradient-39);}.cls-133{fill:url(#radial-gradient-40);}.cls-134{fill:url(#radial-gradient-41);}.cls-135{fill:url(#radial-gradient-42);}.cls-136{fill:url(#radial-gradient-43);}.cls-137{fill:url(#radial-gradient-44);}.cls-138{fill:url(#radial-gradient-45);}.cls-139{fill:url(#linear-gradient-55);}.cls-140{fill:url(#linear-gradient-56);}.cls-141{fill:url(#linear-gradient-57);}.cls-142{fill:url(#linear-gradient-58);}.cls-143{fill:url(#linear-gradient-59);}.cls-144{fill:url(#linear-gradient-60);}.cls-145{fill:#472238;}.cls-146{fill:#d09e93;}.cls-147{fill:#1a447e;}.cls-148{fill:#205096;}.cls-149{fill:#eaad8d;}.cls-150{fill:#4f2130;}.cls-151{fill:#e7ac91;}.cls-152{fill:#754c24;}</style><linearGradient id="linear-gradient" x1="173.89" y1="276.38" x2="220.5" y2="276.38" gradientUnits="userSpaceOnUse"><stop offset="0"/><stop offset="0.03" stop-color="#020202"/><stop offset="0.38" stop-color="#191919"/><stop offset="0.71" stop-color="#272727"/><stop offset="1" stop-color="#2c2c2c"/></linearGradient><clipPath id="clip-path" transform="translate(-67.05 -9.73)"><path class="cls-1" d="M287.55,296.67l-65.1-41.47,83.34-37.43,25.62,17.68a3,3,0,0,0,2.56.41c2-.59,5.38-1.8,5.17-3.12-.39-2.4.53-5.63,6.76-5.57a21.88,21.88,0,0,1,14.53,5.41c2.45,2.28,3.55,5.85,1.26,7.43-1.62,1.12-4.41,1.68-10,.68-2.21-.41-4.69.87-6.07,1.76a.91.91,0,0,0,0,1.51c4.86,3.35,24.48,16.91,24.48,17.49S344,272.94,337.3,275.71a1,1,0,0,0-.14,1.72,5.31,5.31,0,0,0,3.65,1c3.84-.74,10.18-.59,11.77,1.47s0,6.77-7.52,10.12C336.27,294,328,293.87,326,291.3s2.13-4.89,1.33-6.48a10.1,10.1,0,0,0-2-2.49,1.74,1.74,0,0,0-1.87-.36Z"/></clipPath><linearGradient id="linear-gradient-2" x1="4018.06" y1="678.16" x2="4227.53" y2="304.25" gradientTransform="matrix(-0.59, 0.81, 0.81, 0.59, 2496.99, -3269.53)" gradientUnits="userSpaceOnUse"><stop offset="0"/><stop offset="0.28" stop-color="#050505"/><stop offset="0.64" stop-color="#151515"/><stop offset="1" stop-color="#2c2c2c"/></linearGradient><linearGradient id="linear-gradient-3" x1="4114.6" y1="330.17" x2="4114.6" y2="265.33" gradientTransform="matrix(-0.59, 0.81, 0.81, 0.59, 2496.99, -3269.53)" gradientUnits="userSpaceOnUse"><stop offset="0.55"/><stop offset="0.68" stop-color="#030303"/><stop offset="0.74" stop-color="#0d0d0d" stop-opacity="0.99"/><stop offset="0.8" stop-color="#1d1d1d" stop-opacity="0.98"/><stop offset="0.84" stop-color="#353535" stop-opacity="0.96"/><stop offset="0.88" stop-color="#545454" stop-opacity="0.93"/><stop offset="0.92" stop-color="#7b7b7b" stop-opacity="0.9"/><stop offset="0.95" stop-color="#a8a8a8" stop-opacity="0.87"/><stop offset="0.98" stop-color="#dbdbdb" stop-opacity="0.83"/><stop offset="1" stop-color="#fff" stop-opacity="0.8"/></linearGradient><linearGradient id="linear-gradient-4" x1="-1327.6" y1="-482.63" x2="-1327.6" y2="-523.01" gradientTransform="matrix(0.59, -0.81, -0.81, -0.59, 1008.51, -931.14)" xlink:href="#linear-gradient-3"/><linearGradient id="linear-gradient-5" x1="4158.86" y1="483.07" x2="4181.87" y2="483.07" gradientTransform="matrix(-0.59, 0.81, 0.81, 0.59, 2496.99, -3269.53)" gradientUnits="userSpaceOnUse"><stop offset="0.55"/><stop offset="0.67" stop-color="#020202"/><stop offset="0.73" stop-color="#0a0a0a"/><stop offset="0.78" stop-color="#181818"/><stop offset="0.82" stop-color="#2b2b2b"/><stop offset="0.86" stop-color="#434343"/><stop offset="0.89" stop-color="#626262"/><stop offset="0.93" stop-color="#868686"/><stop offset="0.96" stop-color="#b1b1b1"/><stop offset="0.98" stop-color="#dfdfdf"/><stop offset="1" stop-color="#fff"/></linearGradient><radialGradient id="radial-gradient" cx="4214.17" cy="267.58" r="25.32" gradientTransform="matrix(0.23, 0.89, 0.5, -0.03, -841.51, -3476.58)" gradientUnits="userSpaceOnUse"><stop offset="0" stop-color="#fff"/><stop offset="0.1" stop-color="#fbfbfb" stop-opacity="0.98"/><stop offset="0.21" stop-color="#ededed" stop-opacity="0.93"/><stop offset="0.32" stop-color="#d7d7d7" stop-opacity="0.84"/><stop offset="0.43" stop-color="#b9b9b9" stop-opacity="0.72"/><stop offset="0.55" stop-color="#919191" stop-opacity="0.57"/><stop offset="0.67" stop-color="#616161" stop-opacity="0.38"/><stop offset="0.79" stop-color="#282828" stop-opacity="0.16"/><stop offset="0.87" stop-opacity="0"/></radialGradient><radialGradient id="radial-gradient-2" cx="4206.82" cy="-920.62" r="44.47" gradientTransform="matrix(-0.92, 0.05, -0.12, -0.49, 4331.15, -159.22)" xlink:href="#radial-gradient"/><linearGradient id="linear-gradient-6" x1="-1053.07" y1="496.99" x2="-1011.89" y2="496.99" gradientTransform="translate(720.9 -844.73) rotate(-53.78)" xlink:href="#linear-gradient-5"/><radialGradient id="radial-gradient-3" cx="-1050.69" cy="316.94" r="30.25" gradientTransform="matrix(0.92, -0.05, 0.12, 0.49, 1282.79, -25.39)" xlink:href="#radial-gradient"/><radialGradient id="radial-gradient-4" cx="-1015.71" cy="-896.05" r="37.53" gradientTransform="matrix(-0.23, -0.89, -0.5, 0.03, -11.78, -505.06)" xlink:href="#radial-gradient"/><linearGradient id="linear-gradient-7" x1="94.4" y1="482.44" x2="252.02" y2="482.44" gradientTransform="translate(-27.34 176.81) rotate(-53.78)" xlink:href="#linear-gradient-2"/><linearGradient id="linear-gradient-8" x1="118.42" y1="717.69" x2="225.62" y2="225.45" gradientTransform="translate(-27.34 176.81) rotate(-53.78)" gradientUnits="userSpaceOnUse"><stop offset="0" stop-color="#373737"/><stop offset="0" stop-color="#3b3b3b"/><stop offset="0.03" stop-color="#646464"/><stop offset="0.05" stop-color="#888"/><stop offset="0.08" stop-color="#a8a8a8"/><stop offset="0.12" stop-color="#c4c4c4"/><stop offset="0.15" stop-color="#dadada"/><stop offset="0.2" stop-color="#ebebeb"/><stop offset="0.25" stop-color="#f6f6f6"/><stop offset="0.32" stop-color="#fdfdfd"/><stop offset="0.53" stop-color="#fff"/><stop offset="0.68" stop-color="#fdfdfd"/><stop offset="0.75" stop-color="#f5f5f5"/><stop offset="0.8" stop-color="#e9e9e9"/><stop offset="0.85" stop-color="#d7d7d7"/><stop offset="0.88" stop-color="#bfbfbf"/><stop offset="0.92" stop-color="#a2a2a2"/><stop offset="0.95" stop-color="#7f7f7f"/><stop offset="0.98" stop-color="#585858"/><stop offset="1" stop-color="#373737"/></linearGradient><radialGradient id="radial-gradient-5" cx="123.23" cy="289.51" r="16" gradientTransform="matrix(0.49, -0.67, 0.81, 0.59, -0.33, 139.93)" gradientUnits="userSpaceOnUse"><stop offset="0" stop-color="#b8ffff" stop-opacity="0.4"/><stop offset="0.1" stop-color="#8abfbf" stop-opacity="0.3"/><stop offset="0.23" stop-color="#587a7a" stop-opacity="0.19"/><stop offset="0.38" stop-color="#314444" stop-opacity="0.11"/><stop offset="0.54" stop-color="#151d1d" stop-opacity="0.05"/><stop offset="0.73" stop-color="#050707" stop-opacity="0.01"/><stop offset="1" stop-opacity="0"/></radialGradient><radialGradient id="radial-gradient-6" cx="2442.94" cy="-949.86" r="15.36" gradientTransform="matrix(-0.49, 0.67, -0.81, -0.59, 719.63, -1949.06)" gradientUnits="userSpaceOnUse"><stop offset="0" stop-color="#b8ffff" stop-opacity="0.4"/><stop offset="0.02" stop-color="#a8e9e9" stop-opacity="0.37"/><stop offset="0.11" stop-color="#74a1a1" stop-opacity="0.25"/><stop offset="0.21" stop-color="#4a6666" stop-opacity="0.16"/><stop offset="0.32" stop-color="#293838" stop-opacity="0.09"/><stop offset="0.45" stop-color="#111818" stop-opacity="0.04"/><stop offset="0.63" stop-color="#040505" stop-opacity="0.01"/><stop offset="1" stop-opacity="0"/></radialGradient><radialGradient id="radial-gradient-7" cx="121.96" cy="290.72" r="10.39" xlink:href="#radial-gradient-5"/><radialGradient id="radial-gradient-8" cx="120.88" cy="292.36" r="1.04" gradientTransform="matrix(0.49, -0.67, 0.81, 0.59, -0.33, 139.93)" gradientUnits="userSpaceOnUse"><stop offset="0" stop-color="#b8ffff" stop-opacity="0.4"/><stop offset="0.17" stop-color="#a7e8e8" stop-opacity="0.36"/><stop offset="0.44" stop-color="#7baaaa" stop-opacity="0.27"/><stop offset="0.79" stop-color="#324646" stop-opacity="0.11"/><stop offset="1" stop-opacity="0"/></radialGradient><radialGradient id="radial-gradient-9" cx="120.55" cy="292.07" r="4.15" gradientTransform="matrix(0.49, -0.67, 0.81, 0.59, -0.33, 139.93)" gradientUnits="userSpaceOnUse"><stop offset="0" stop-color="#81ffa0" stop-opacity="0.4"/><stop offset="0.1" stop-color="#60bf78" stop-opacity="0.3"/><stop offset="0.23" stop-color="#3e7a4c" stop-opacity="0.19"/><stop offset="0.38" stop-color="#22442a" stop-opacity="0.11"/><stop offset="0.54" stop-color="#0f1d12" stop-opacity="0.05"/><stop offset="0.73" stop-color="#040704" stop-opacity="0.01"/><stop offset="1" stop-opacity="0"/></radialGradient><radialGradient id="radial-gradient-10" cx="130.06" cy="294.71" r="8.65" xlink:href="#radial-gradient-5"/><radialGradient id="radial-gradient-11" cx="129.04" cy="295.7" r="4.09" xlink:href="#radial-gradient-9"/><linearGradient id="linear-gradient-9" x1="73.73" y1="289.5" x2="73.73" y2="276.17" gradientTransform="matrix(0.41, -0.86, 0.81, 0.59, 9.46, 188.04)" gradientUnits="userSpaceOnUse"><stop offset="0"/><stop offset="0.03" stop-color="#6f6f6f"/><stop offset="0.04" stop-color="#565656"/><stop offset="0.06" stop-color="#3b3b3b"/><stop offset="0.08" stop-color="#252525"/><stop offset="0.1" stop-color="#141414"/><stop offset="0.13" stop-color="#090909"/><stop offset="0.17" stop-color="#020202"/><stop offset="0.29"/><stop offset="0.58" stop-color="#020202"/><stop offset="0.68" stop-color="#090909"/><stop offset="0.76" stop-color="#141414"/><stop offset="0.82" stop-color="#252525"/><stop offset="0.87" stop-color="#3b3b3b"/><stop offset="0.92" stop-color="#565656"/><stop offset="0.95" stop-color="#6f6f6f"/><stop offset="1"/></linearGradient><linearGradient id="linear-gradient-10" x1="75.07" y1="290.09" x2="70.32" y2="273.13" gradientTransform="matrix(0.41, -0.86, 0.81, 0.59, 9.46, 188.04)" gradientUnits="userSpaceOnUse"><stop offset="0"/><stop offset="0.03" stop-color="#060606"/><stop offset="0.15" stop-color="#171717"/><stop offset="0.29" stop-color="#232323"/><stop offset="0.48" stop-color="#2a2a2a"/><stop offset="1" stop-color="#2c2c2c"/></linearGradient><linearGradient id="linear-gradient-11" x1="73.99" y1="324.06" x2="73.99" y2="297.58" xlink:href="#linear-gradient-9"/><linearGradient id="linear-gradient-12" x1="77.2" y1="324.93" x2="68.11" y2="292.46" xlink:href="#linear-gradient-10"/><linearGradient id="linear-gradient-13" x1="74.26" y1="354.79" x2="74.26" y2="327.3" xlink:href="#linear-gradient-9"/><linearGradient id="linear-gradient-14" x1="77.6" y1="355.7" x2="68.17" y2="322.01" xlink:href="#linear-gradient-10"/><linearGradient id="linear-gradient-15" x1="116.83" y1="271.53" x2="116.83" y2="259.27" gradientTransform="matrix(0.4, -0.87, 0.82, 0.58, -9.97, 229.37)" xlink:href="#linear-gradient-9"/><linearGradient id="linear-gradient-16" x1="117.83" y1="271.5" x2="114.14" y2="258.31" gradientTransform="matrix(0.4, -0.87, 0.82, 0.58, -9.97, 229.37)" xlink:href="#linear-gradient-10"/><linearGradient id="linear-gradient-17" x1="116.91" y1="302.48" x2="116.91" y2="278.35" gradientTransform="matrix(0.4, -0.87, 0.82, 0.58, -9.97, 229.37)" xlink:href="#linear-gradient-9"/><linearGradient id="linear-gradient-18" x1="119.6" y1="302.69" x2="111.99" y2="275.52" gradientTransform="matrix(0.4, -0.87, 0.82, 0.58, -9.97, 229.37)" xlink:href="#linear-gradient-10"/><clipPath id="clip-path-2" transform="translate(-67.05 -9.73)"><path class="cls-1" d="M356.6,124.67l81.15,34.78-25,17.59s-5.61.8-6.61-5.81-13.83-2.6-16.84-.6-9.09,6-6.16,9.66,7.31,1.83,11.09,2.31a21.87,21.87,0,0,1,6.58,2S375.93,201.86,375,201.86s-34.86-13.65-34.86-13.65-2.19.61-2.43,2.07,1.7,5.12-1.59,7.07-13.16,1.62-18.89-1.7c-3.58-2.09-8.49-7.42-3.29-10,3.46-1.71,8.42.4,11.2-.76,2.62-1.09,2.27-2.22,1.48-2.53-8.77-3.4-33.5-13.15-33.5-13.84S356.6,124.67,356.6,124.67Z"/></clipPath><radialGradient id="radial-gradient-12" cx="-490.63" cy="504.73" r="199.79" gradientTransform="matrix(-0.23, 0.54, 0.1, 0.04, 482.72, 595.47)" gradientUnits="userSpaceOnUse"><stop offset="0" stop-color="#373737"/><stop offset="0.25" stop-color="#4c4c4c" stop-opacity="0.89"/><stop offset="0.57" stop-color="#898989" stop-opacity="0.59"/><stop offset="0.94" stop-color="#ededed" stop-opacity="0.09"/><stop offset="1" stop-color="#fff" stop-opacity="0"/></radialGradient><linearGradient id="linear-gradient-19" x1="66.27" y1="397.44" x2="16.08" y2="340.94" gradientTransform="translate(-44.72 205.64) rotate(-61.84)" xlink:href="#linear-gradient"/><linearGradient id="linear-gradient-20" x1="3981.69" y1="670.67" x2="4191.15" y2="296.76" gradientTransform="matrix(-0.47, 0.88, 0.88, 0.47, 1971.14, -3560.76)" xlink:href="#linear-gradient-2"/><linearGradient id="linear-gradient-21" x1="4078.23" y1="322.68" x2="4078.23" y2="257.84" gradientTransform="matrix(-0.47, 0.88, 0.88, 0.47, 1971.14, -3560.76)" xlink:href="#linear-gradient-3"/><linearGradient id="linear-gradient-22" x1="-1291.23" y1="-475.14" x2="-1291.23" y2="-515.52" gradientTransform="matrix(0.47, -0.88, -0.88, -0.47, 825.45, -1036.68)" xlink:href="#linear-gradient-3"/><linearGradient id="linear-gradient-23" x1="4122.49" y1="475.58" x2="4145.5" y2="475.58" gradientTransform="matrix(-0.47, 0.88, 0.88, 0.47, 1971.14, -3560.76)" xlink:href="#linear-gradient-5"/><radialGradient id="radial-gradient-13" cx="4170.07" cy="260.09" r="25.32" gradientTransform="matrix(0.35, 0.85, 0.49, -0.1, -1333.8, -3296.34)" xlink:href="#radial-gradient"/><radialGradient id="radial-gradient-14" cx="4162.73" cy="-913.13" r="44.47" gradientTransform="matrix(-0.9, 0.18, -0.19, -0.46, 4195.88, -762.7)" xlink:href="#radial-gradient"/><linearGradient id="linear-gradient-24" x1="-1016.69" y1="489.5" x2="-975.51" y2="489.5" gradientTransform="translate(552.81 -910.77) rotate(-61.84)" xlink:href="#linear-gradient-5"/><radialGradient id="radial-gradient-15" cx="-1006.59" cy="309.44" r="30.25" gradientTransform="matrix(0.9, -0.18, 0.19, 0.46, 1196.45, -202.53)" xlink:href="#radial-gradient"/><radialGradient id="radial-gradient-16" cx="-971.62" cy="-888.56" r="37.53" gradientTransform="matrix(-0.35, -0.85, -0.49, 0.1, -95.38, -470.61)" xlink:href="#radial-gradient"/><linearGradient id="linear-gradient-25" x1="130.77" y1="474.94" x2="288.39" y2="474.94" gradientTransform="translate(-44.72 205.64) rotate(-61.84)" xlink:href="#linear-gradient-2"/><linearGradient id="linear-gradient-26" x1="154.79" y1="710.2" x2="261.99" y2="217.96" gradientTransform="translate(-44.72 205.64) rotate(-61.84)" xlink:href="#linear-gradient-8"/><radialGradient id="radial-gradient-17" cx="167.33" cy="282.02" r="16" gradientTransform="matrix(0.39, -0.73, 0.88, 0.47, -23.15, 165.34)" xlink:href="#radial-gradient-5"/><radialGradient id="radial-gradient-18" cx="2398.84" cy="-942.37" r="15.36" gradientTransform="matrix(-0.39, 0.73, -0.88, -0.47, 396.61, -2003.99)" xlink:href="#radial-gradient-6"/><radialGradient id="radial-gradient-19" cx="166.06" cy="283.23" r="10.39" gradientTransform="matrix(0.39, -0.73, 0.88, 0.47, -23.15, 165.34)" xlink:href="#radial-gradient-5"/><radialGradient id="radial-gradient-20" cx="164.98" cy="284.87" r="1.04" gradientTransform="matrix(0.39, -0.73, 0.88, 0.47, -23.15, 165.34)" xlink:href="#radial-gradient-8"/><radialGradient id="radial-gradient-21" cx="164.65" cy="284.58" r="4.15" gradientTransform="matrix(0.39, -0.73, 0.88, 0.47, -23.15, 165.34)" xlink:href="#radial-gradient-9"/><radialGradient id="radial-gradient-22" cx="174.16" cy="287.22" r="8.65" gradientTransform="matrix(0.39, -0.73, 0.88, 0.47, -23.15, 165.34)" xlink:href="#radial-gradient-5"/><radialGradient id="radial-gradient-23" cx="173.14" cy="288.21" r="4.09" gradientTransform="matrix(0.39, -0.73, 0.88, 0.47, -23.15, 165.34)" xlink:href="#radial-gradient-9"/><linearGradient id="linear-gradient-27" x1="112.42" y1="288.8" x2="112.42" y2="275.47" gradientTransform="matrix(0.29, -0.91, 0.88, 0.47, -6.7, 211.6)" xlink:href="#linear-gradient-9"/><linearGradient id="linear-gradient-28" x1="113.75" y1="289.38" x2="109.01" y2="272.43" gradientTransform="matrix(0.29, -0.91, 0.88, 0.47, -6.7, 211.6)" xlink:href="#linear-gradient-10"/><linearGradient id="linear-gradient-29" x1="112.68" y1="323.35" x2="112.68" y2="296.88" gradientTransform="matrix(0.29, -0.91, 0.88, 0.47, -6.7, 211.6)" xlink:href="#linear-gradient-9"/><linearGradient id="linear-gradient-30" x1="115.89" y1="324.22" x2="106.8" y2="291.75" gradientTransform="matrix(0.29, -0.91, 0.88, 0.47, -6.7, 211.6)" xlink:href="#linear-gradient-10"/><linearGradient id="linear-gradient-31" x1="112.95" y1="354.09" x2="112.95" y2="326.6" gradientTransform="matrix(0.29, -0.91, 0.88, 0.47, -6.7, 211.6)" xlink:href="#linear-gradient-9"/><linearGradient id="linear-gradient-32" x1="116.29" y1="354.99" x2="106.86" y2="321.3" gradientTransform="matrix(0.29, -0.91, 0.88, 0.47, -6.7, 211.6)" xlink:href="#linear-gradient-10"/><clipPath id="clip-path-3" transform="translate(-67.05 -9.73)"><path class="cls-1" d="M416.76,199.15l34.29-15.08a4.19,4.19,0,0,1,3,3c.53,2.39-2.13,4.79,2.66,7s18.63-2,22-4.66,4.79-5.37,1.46-6.94-5.05-.51-8.91-1.44a16.19,16.19,0,0,1-6-2.66s33-14.37,33.67-14.37,66.22,42.38,65.79,43.24S484.11,242.68,482,242.88s-27.28-18.6-27.28-18.6.29-1.68,5.37-1.68,11.79.22,13.52-3-3.89-8.22-8.33-9.84-8.93-2-12.11-1.19a4.56,4.56,0,0,0-3.42,4.26c-.49,4.23-3.08,5-4.37,4.61S416.76,199.15,416.76,199.15Z"/></clipPath><linearGradient id="linear-gradient-33" x1="199.74" y1="205.21" x2="166.34" y2="167.62" gradientTransform="translate(-85.3 163.68) rotate(-43.22)" xlink:href="#linear-gradient"/><linearGradient id="linear-gradient-34" x1="3858.61" y1="479.46" x2="4051.5" y2="135.15" gradientTransform="matrix(-0.73, 0.68, 0.68, 0.73, 3027.79, -2761.75)" xlink:href="#linear-gradient-2"/><linearGradient id="linear-gradient-35" x1="3974.49" y1="157.01" x2="3974.49" y2="114.38" gradientTransform="matrix(-0.73, 0.68, 0.68, 0.73, 3027.79, -2761.75)" xlink:href="#linear-gradient-3"/><linearGradient id="linear-gradient-36" x1="-1169.42" y1="-206.93" x2="-1169.42" y2="-283.29" gradientTransform="matrix(0.73, -0.68, -0.68, -0.73, 1136.04, -735.71)" xlink:href="#linear-gradient-3"/><linearGradient id="linear-gradient-37" x1="4022.69" y1="256.28" x2="4038.86" y2="256.28" gradientTransform="matrix(-0.73, 0.68, 0.68, 0.73, 3027.79, -2761.75)" xlink:href="#linear-gradient-5"/><radialGradient id="radial-gradient-24" cx="4036.45" cy="115.25" r="12.3" gradientTransform="matrix(0.06, 0.91, 0.5, 0.06, -127.55, -3616.23)" xlink:href="#radial-gradient"/><radialGradient id="radial-gradient-25" cx="4039.03" cy="-629.78" r="46.6" gradientTransform="matrix(-0.91, -0.12, -0.03, -0.5, 4019.51, 451.15)" xlink:href="#radial-gradient"/><linearGradient id="linear-gradient-38" x1="-920.62" y1="308.09" x2="-833.13" y2="308.09" gradientTransform="translate(837.46 -703.46) rotate(-43.22)" xlink:href="#linear-gradient-5"/><radialGradient id="radial-gradient-26" cx="-884.43" cy="147.41" r="21.01" gradientTransform="matrix(0.91, 0.12, 0.03, 0.5, 1077.86, 52.96)" xlink:href="#radial-gradient"/><radialGradient id="radial-gradient-27" cx="-799.5" cy="-682.55" r="37.74" gradientTransform="matrix(-0.06, -0.91, -0.5, -0.06, 157.54, -570.22)" xlink:href="#radial-gradient"/><linearGradient id="linear-gradient-39" x1="238.4" y1="286.59" x2="429.41" y2="286.59" gradientTransform="translate(-85.3 163.68) rotate(-43.22)" xlink:href="#linear-gradient-2"/><linearGradient id="linear-gradient-40" x1="299.23" y1="446.84" x2="376.23" y2="93.27" gradientTransform="translate(-85.3 163.68) rotate(-43.22)" xlink:href="#linear-gradient-8"/><radialGradient id="radial-gradient-28" cx="287.18" cy="127.87" r="8.83" gradientTransform="matrix(0.6, -0.56, 0.68, 0.73, -51.99, 132.37)" xlink:href="#radial-gradient-5"/><radialGradient id="radial-gradient-29" cx="2277.91" cy="-785.17" r="8.48" gradientTransform="matrix(-0.6, 0.56, -0.68, -0.73, 1038.57, -1789.32)" xlink:href="#radial-gradient-6"/><radialGradient id="radial-gradient-30" cx="286.1" cy="128.53" r="5.73" gradientTransform="matrix(0.6, -0.56, 0.68, 0.73, -51.99, 132.37)" xlink:href="#radial-gradient-5"/><radialGradient id="radial-gradient-31" cx="285.17" cy="129.5" r="0.74" gradientTransform="matrix(0.6, -0.56, 0.68, 0.73, -51.99, 132.37)" xlink:href="#radial-gradient-8"/><radialGradient id="radial-gradient-32" cx="284.89" cy="129.27" r="2.29" gradientTransform="matrix(0.6, -0.56, 0.68, 0.73, -51.99, 132.37)" xlink:href="#radial-gradient-9"/><radialGradient id="radial-gradient-33" cx="293.1" cy="131.03" r="4.86" gradientTransform="matrix(0.6, -0.56, 0.68, 0.73, -51.99, 132.37)" xlink:href="#radial-gradient-5"/><radialGradient id="radial-gradient-34" cx="292.2" cy="131.58" r="2.3" gradientTransform="matrix(0.6, -0.56, 0.68, 0.73, -51.99, 132.37)" xlink:href="#radial-gradient-9"/><linearGradient id="linear-gradient-41" x1="232.7" y1="141.12" x2="232.7" y2="134.22" gradientTransform="matrix(0.57, -0.77, 0.68, 0.73, -51.17, 181.46)" xlink:href="#linear-gradient-9"/><linearGradient id="linear-gradient-42" x1="233.29" y1="141.48" x2="230.77" y2="132.46" gradientTransform="matrix(0.57, -0.77, 0.68, 0.73, -51.17, 181.46)" xlink:href="#linear-gradient-10"/><linearGradient id="linear-gradient-43" x1="232.17" y1="158.44" x2="232.17" y2="144.64" gradientTransform="matrix(0.57, -0.77, 0.68, 0.73, -51.17, 181.46)" xlink:href="#linear-gradient-9"/><linearGradient id="linear-gradient-44" x1="233.75" y1="158.89" x2="228.97" y2="141.81" gradientTransform="matrix(0.57, -0.77, 0.68, 0.73, -51.17, 181.46)" xlink:href="#linear-gradient-10"/><linearGradient id="linear-gradient-45" x1="231.59" y1="174.45" x2="231.59" y2="159.53" gradientTransform="matrix(0.57, -0.77, 0.68, 0.73, -51.17, 181.46)" xlink:href="#linear-gradient-9"/><linearGradient id="linear-gradient-46" x1="233.33" y1="174.91" x2="228.17" y2="156.49" gradientTransform="matrix(0.57, -0.77, 0.68, 0.73, -51.17, 181.46)" xlink:href="#linear-gradient-10"/><clipPath id="clip-path-4" transform="translate(-67.05 -9.73)"><path class="cls-1" d="M445.37,259.94l-25.94,17.54s-4.43.92-6.26-4.12-8.08-6.71-17.85-1.52-5.95,8.85-4,9.92,9.92-.77,12.21.91a12.17,12.17,0,0,1,1.47,1.26,1.71,1.71,0,0,1-.28,2.6l-23.62,16.13L452,332.41s4.3,2.53,12.17,1.78c6.06-.58,11.28-4.71,11.28-4.71l51.94-34.38-33-15.16s-3.87-.37-3.74,4.76-4.22,8.81-18.78,3.35c-9.52-3.56-8.71-8.21-6.68-9.94,3.06-2.62,5.92-.78,10.42-1.52,2.64-.43,4.41-2,3.42-2.65C477.11,272.58,445.37,259.94,445.37,259.94Z"/></clipPath><linearGradient id="linear-gradient-47" x1="57.74" y1="287.39" x2="19.31" y2="244.14" gradientTransform="translate(-47.75 209.77) rotate(-64.14)" xlink:href="#linear-gradient"/><linearGradient id="linear-gradient-48" x1="3990.74" y1="550.91" x2="4184.83" y2="204.45" gradientTransform="matrix(-0.44, 0.9, 0.9, 0.44, 1815.65, -3634.35)" xlink:href="#linear-gradient-2"/><linearGradient id="linear-gradient-49" x1="4088.93" y1="260.78" x2="4088.93" y2="185.28" gradientTransform="matrix(-0.44, 0.9, 0.9, 0.44, 1815.65, -3634.35)" xlink:href="#linear-gradient-3"/><linearGradient id="linear-gradient-50" x1="-1339.56" y1="-331.5" x2="-1339.56" y2="-395.25" gradientTransform="matrix(0.44, -0.9, -0.9, -0.44, 771.96, -1066.4)" xlink:href="#linear-gradient-3"/><linearGradient id="linear-gradient-51" x1="4154.63" y1="351.9" x2="4176.5" y2="351.9" gradientTransform="matrix(-0.44, 0.9, 0.9, 0.44, 1815.65, -3634.35)" xlink:href="#linear-gradient-5"/><radialGradient id="radial-gradient-35" cx="4207.55" cy="188.79" r="35.65" gradientTransform="matrix(0.38, 0.83, 0.49, -0.12, -1533.32, -3280.72)" xlink:href="#radial-gradient"/><radialGradient id="radial-gradient-36" cx="4194.82" cy="-748.22" r="26.7" gradientTransform="matrix(-0.89, 0.22, -0.21, -0.46, 4053.72, -907.64)" xlink:href="#radial-gradient"/><linearGradient id="linear-gradient-52" x1="-1052.17" y1="413.11" x2="-997.32" y2="413.11" gradientTransform="translate(504.59 -929.68) rotate(-64.14)" xlink:href="#linear-gradient-5"/><radialGradient id="radial-gradient-37" cx="-999.62" cy="240.65" r="48.58" gradientTransform="matrix(0.89, -0.22, 0.21, 0.46, 1124.82, -250.15)" xlink:href="#radial-gradient"/><radialGradient id="radial-gradient-38" cx="-1047.38" cy="-797.37" r="15.58" gradientTransform="matrix(-0.38, -0.83, -0.49, 0.12, -219.33, -521.37)" xlink:href="#radial-gradient"/><linearGradient id="linear-gradient-53" x1="99.42" y1="382.58" x2="264.89" y2="382.58" gradientTransform="translate(-47.75 209.77) rotate(-64.14)" xlink:href="#linear-gradient-2"/><linearGradient id="linear-gradient-54" x1="120.94" y1="573.1" x2="212.16" y2="154.21" gradientTransform="translate(-47.75 209.77) rotate(-64.14)" xlink:href="#linear-gradient-8"/><radialGradient id="radial-gradient-39" cx="135.07" cy="210.51" r="23.73" gradientTransform="matrix(0.36, -0.74, 0.9, 0.44, -27.81, 168.64)" xlink:href="#radial-gradient-5"/><radialGradient id="radial-gradient-40" cx="2432.69" cy="-874.14" r="22.79" gradientTransform="matrix(-0.36, 0.74, -0.9, -0.44, 304.73, -2015.77)" xlink:href="#radial-gradient-6"/><radialGradient id="radial-gradient-41" cx="133.51" cy="212.32" r="15.41" gradientTransform="matrix(0.36, -0.74, 0.9, 0.44, -27.81, 168.64)" xlink:href="#radial-gradient-5"/><radialGradient id="radial-gradient-42" cx="132.32" cy="214.39" r="1.42" gradientTransform="matrix(0.36, -0.74, 0.9, 0.44, -27.81, 168.64)" xlink:href="#radial-gradient-8"/><radialGradient id="radial-gradient-43" cx="131.77" cy="214.32" r="6.15" gradientTransform="matrix(0.36, -0.74, 0.9, 0.44, -27.81, 168.64)" xlink:href="#radial-gradient-9"/><radialGradient id="radial-gradient-44" cx="143.7" cy="216.58" r="13.02" gradientTransform="matrix(0.36, -0.74, 0.9, 0.44, -27.81, 168.64)" xlink:href="#radial-gradient-5"/><radialGradient id="radial-gradient-45" cx="142.4" cy="218.07" r="6.15" gradientTransform="matrix(0.36, -0.74, 0.9, 0.44, -27.81, 168.64)" xlink:href="#radial-gradient-9"/><linearGradient id="linear-gradient-55" x1="82.11" y1="231.93" x2="82.11" y2="216.85" gradientTransform="matrix(0.25, -0.92, 0.9, 0.44, -9.52, 214.2)" xlink:href="#linear-gradient-9"/><linearGradient id="linear-gradient-56" x1="83.86" y1="232.57" x2="78.58" y2="213.71" gradientTransform="matrix(0.25, -0.92, 0.9, 0.44, -9.52, 214.2)" xlink:href="#linear-gradient-10"/><linearGradient id="linear-gradient-57" x1="83.76" y1="269.74" x2="83.76" y2="241.8" gradientTransform="matrix(0.25, -0.92, 0.9, 0.44, -9.52, 214.2)" xlink:href="#linear-gradient-9"/><linearGradient id="linear-gradient-58" x1="87.47" y1="270.67" x2="77.9" y2="236.47" gradientTransform="matrix(0.25, -0.92, 0.9, 0.44, -9.52, 214.2)" xlink:href="#linear-gradient-10"/><linearGradient id="linear-gradient-59" x1="85.4" y1="299.57" x2="85.4" y2="273.22" gradientTransform="matrix(0.25, -0.92, 0.9, 0.44, -9.52, 214.2)" xlink:href="#linear-gradient-9"/><linearGradient id="linear-gradient-60" x1="88.88" y1="300.42" x2="79.84" y2="268.12" gradientTransform="matrix(0.25, -0.92, 0.9, 0.44, -9.52, 214.2)" xlink:href="#linear-gradient-10"/></defs><g class="cls-2"><g id="圖層_10" data-name="圖層 10"><ellipse class="cls-3" cx="175.59" cy="445.17" rx="63.08" ry="28.93"/><ellipse class="cls-3" cx="461.74" cy="483.16" rx="47.14" ry="20.93"/><ellipse class="cls-3" cx="229.34" cy="305.59" rx="49.71" ry="19.39"/><path id="SVGID" class="cls-3" d="M293.11,458.71,254.36,432.4s-9.06-5.48-7.77-14.32c1.39-9.6,12.07-13.8,12.07-13.8l52.69-24.46L337,397.5a3,3,0,0,0,2.56.41c2-.59,5.38-1.8,5.17-3.12-.39-2.4.53-5.63,6.75-5.57a21.88,21.88,0,0,1,14.53,5.4c2.45,2.29,3.56,5.86,1.27,7.44-1.63,1.12-4.41,1.68-10,.67-2.22-.4-4.69.88-6.08,1.76a.91.91,0,0,0,0,1.52c4.86,3.35,24.47,16.91,24.47,17.49S349.53,435,342.86,437.76a1,1,0,0,0-.14,1.72,5.31,5.31,0,0,0,3.65,1c3.84-.74,10.18-.59,11.77,1.47s0,6.77-7.52,10.12c-8.79,3.93-17.08,3.81-19.12,1.24s2.13-4.89,1.34-6.48a10.1,10.1,0,0,0-2-2.49A1.75,1.75,0,0,0,329,444Z" transform="translate(-67.05 -9.73)"/><path id="SVGID-2" data-name="SVGID" class="cls-3" d="M451.74,423,425.8,440.51s-4.42.91-6.25-4.12-8.09-6.71-17.85-1.53-5.95,8.85-4,9.92,9.92-.76,12.21.92A11.28,11.28,0,0,1,411.4,447a1.71,1.71,0,0,1-.27,2.6l-23.62,16.13,70.89,29.75s4.31,2.54,12.17,1.79c6.07-.58,11.29-4.72,11.29-4.72l51.93-34.38-33-15.15s-3.86-.38-3.73,4.75-4.23,8.81-18.78,3.36c-9.52-3.57-8.71-8.21-6.68-9.95,3.06-2.61,5.92-.78,10.42-1.51,2.63-.43,4.41-2,3.41-2.66C483.48,435.6,451.74,423,451.74,423Z" transform="translate(-67.05 -9.73)"/><path id="SVGID-3" data-name="SVGID" class="cls-3" d="M364.46,294.48c11.46-.83,19.06,2.82,19.06,2.82l61,24.89-25,17.59s-5.61.8-6.61-5.82-13.83-2.6-16.83-.6-9.1,6-6.17,9.66,7.31,1.83,11.09,2.32a21.42,21.42,0,0,1,6.58,2s-24.86,17.3-25.84,17.3-34.85-13.65-34.85-13.65-2.2.61-2.44,2.07,1.7,5.12-1.59,7.07-13.15,1.62-18.89-1.7c-3.58-2.08-8.49-7.42-3.29-10,3.46-1.71,8.42.4,11.2-.75,2.62-1.09,2.27-2.23,1.48-2.54-8.77-3.4-33.5-13.14-33.5-13.84,0-.41,47.86-31.81,47.86-31.81S352.64,295.33,364.46,294.48Z" transform="translate(-67.05 -9.73)"/><path id="SVGID-4" data-name="SVGID" class="cls-3" d="M422.84,361.94l34.28-15.08a4.19,4.19,0,0,1,3,3c.54,2.39-2.13,4.79,2.67,7.05s18.63-2,22-4.66,4.79-5.37,1.47-6.94-5.06-.51-8.92-1.44a16.19,16.19,0,0,1-6-2.66s33-14.37,33.67-14.37c.35,0,34.94,21.56,34.94,21.56s14.49,9.17,14.52,21.12c0,8.84-11.79,13.7-11.79,13.7S489.29,405.55,488,405.67c-2.16.2-27.29-18.61-27.29-18.61s.29-1.67,5.37-1.67,11.8.22,13.53-3-3.9-8.22-8.33-9.84-8.94-2-12.12-1.19a4.58,4.58,0,0,0-3.42,4.26c-.49,4.23-3.07,5-4.37,4.61S422.84,361.94,422.84,361.94Z" transform="translate(-67.05 -9.73)"/><ellipse class="cls-3" cx="502.13" cy="345.19" rx="47.14" ry="20.93"/><circle class="cls-4" cx="294.42" cy="7.9" r="7.9"/><circle class="cls-5" cx="356.23" cy="92.55" r="7.9"/><circle class="cls-6" cx="476.07" cy="22.76" r="10.88"/><circle class="cls-6" cx="118.09" cy="504.09" r="10.88"/><circle class="cls-5" cx="74.07" cy="282.15" r="7.9"/><circle class="cls-7" cx="110.11" cy="110.62" r="7.9"/><circle class="cls-8" cx="582.88" cy="172.77" r="7.9"/><circle class="cls-5" cx="590.78" cy="336.18" r="7.9"/><circle class="cls-4" cx="552.19" cy="463.67" r="7.9"/><circle class="cls-6" cx="10.88" cy="196.9" r="10.88"/><circle class="cls-7" cx="654.91" cy="235.96" r="10.88"/></g><g id="圖層_2" data-name="圖層 2"><path class="cls-9" d="M297.39,130s-13.45,23.72-13.45,34.53.45,36.93,2.25,50.14,1.5,14.11,1.5,14.11H304.8s.3-62.75,1.81-63.8.9,63.8.9,63.8h15.31s4.35-28.37,4.5-40.08,1.2-36.18-1.5-44.89-4.5-17.26-4.5-17.26Z" transform="translate(-67.05 -9.73)"/><path class="cls-10" d="M292.63,117.63s-.46,9,.82,10.46,8.84,6.51,18.59,5.38,9.9-3.19,11-4.88S326.89,116,326.89,116l7.24-12.2L323.57,85.25s-3.25-5.17-3.92-5.8-9.29.52-9.29.52-9.62,3.92-10.61,4.37a26.64,26.64,0,0,0-2.51,1.45Z" transform="translate(-67.05 -9.73)"/><path class="cls-11" d="M298.76,85.25s-12.31,3.83-13.51,10.12-3.89,22.79-4.19,29.69-1.65,11.09.9,13.49,28.7,19.79,28.7,19.79l3.68-3.3s-9-9.44-12.29-12-12.9-10.35-12.9-10.35a132.46,132.46,0,0,0,6.45-19c2.1-9,3.16-10.94,3.16-10.94a7.3,7.3,0,0,0,2.41-8.34A52.72,52.72,0,0,1,298.76,85.25Z" transform="translate(-67.05 -9.73)"/><path class="cls-11" d="M319.65,79.45s11.42.24,14.36,13.13c2.73,12,3.16,13.83,3.77,16s2.34,7.12,3.05,10,1.42,7.83,1.42,7.83,7.73,4.38,9.56,6.11-7.42,5.69-7.42,5.69-8.34-2.24-9.87-5.08-3.66-10.28-4.58-12.11-3.05-5-3.05-5a29,29,0,0,1,1.91-4.84c1.09-2.22,3.06-4.9,3.25-7.56.32-4.36-5.85-10.78-8.26-15C320.18,82.21,319.65,79.45,319.65,79.45Z" transform="translate(-67.05 -9.73)"/><path class="cls-12" d="M295.18,54.84a6.36,6.36,0,0,1-4.78-2.68c-1.95-2.68-2.68-7.7,1-10.06a7.64,7.64,0,0,1,10.22,1.46C303.78,46.4,295.18,54.84,295.18,54.84Z" transform="translate(-67.05 -9.73)"/><path class="cls-13" d="M320.57,56.46A8.81,8.81,0,0,0,322,50.54c-.41-3.49-.9-9.73-12.17-9.41s-14.92,4.95-15.65,10.14-1.46,6.57-.89,9.4,1.22,6.33,6.73,10.22,6.16,3.89,6.16,3.89Z" transform="translate(-67.05 -9.73)"/><path class="cls-14" d="M302.31,68.53s1.08,6.93.83,8.77.09,5.42-.83,5.92-1.59.84-1.59.84,9.6,11.76,14.44,8.51c3-2,2.66-8.78,2.3-12.28-.17-1.73-1.29-.62-1.73-1.27-.89-1.28-.15-5.06-.15-5.06Z" transform="translate(-67.05 -9.73)"/><path class="cls-11" d="M304.7,63.78c.52-4.88-.5-14.28,8.86-14.53s8.38,5.17,8.13,7.26,2.18,9.25-.19,13.68-2.52,7.38-6.71,6.15S304,71.91,303,70.18s-3.94-1-4.18-5.17,1.54-4.24,2.7-4.1S304.51,65.55,304.7,63.78Z" transform="translate(-67.05 -9.73)"/><path class="cls-15" d="M313.34,68c.21-.15,2,.14,3.2,0s2.88-1.37,3.11-1.08a2.62,2.62,0,0,1-1.82,2.94,4.34,4.34,0,0,1-3.24,0C313.53,69.46,312.92,68.32,313.34,68Z" transform="translate(-67.05 -9.73)"/><path class="cls-16" d="M309.14,58.65c-.64-.48.75-1.87,2.34-2.21s2.84.64,2.62,1.1-1.26-.54-2.66-.17S309.67,59,309.14,58.65Z" transform="translate(-67.05 -9.73)"/><ellipse class="cls-16" cx="244.61" cy="50.09" rx="0.67" ry="1.1"/><path class="cls-16" d="M317.79,57.11c-.47-.56.9-1.76,2.26-1.89s2.25,1,2,1.41-1-.69-2.18-.5S318.17,57.56,317.79,57.11Z" transform="translate(-67.05 -9.73)"/><ellipse class="cls-16" cx="252.94" cy="48.99" rx="0.67" ry="1.1"/></g><g id="圖層_7" data-name="圖層 7"><path class="cls-17" d="M287.55,315l-46.62-33.78,64.86-45.11,26.78,18.48s6.87-1.65,6.57-3.51c-.39-2.41.53-5.63,6.76-5.58a21.93,21.93,0,0,1,14.53,5.41c2.45,2.28,3.55,5.86,1.26,7.43-1.62,1.13-4.41,1.69-10,.68-3.3-.6-7.18,2.53-7.18,2.53s25.56,17.57,25.56,18.23-34.33,14.91-34.33,14.91,2.69,2.57,5,2.12c3.84-.75,10.18-.6,11.77,1.47s0,6.76-7.52,10.12c-8.79,3.93-17.08,3.8-19.11,1.24s2.13-4.89,1.33-6.49a13,13,0,0,0-2.84-3.26Z" transform="translate(-67.05 -9.73)"/><polygon class="cls-17" points="303.05 251.72 303.05 270.05 220.5 305.27 220.5 286.94 303.05 251.72"/><polygon class="cls-17" points="258.36 280.39 258.36 298.73 286.01 289.56 286.09 272.01 258.36 280.39"/><polygon class="cls-18" points="173.89 247.49 173.89 271.49 220.5 305.27 220.5 286.94 173.89 247.49"/><polygon class="cls-17" points="295.87 228.22 295.87 246.3 277.5 233.49 284.01 225.62 295.87 228.22"/><g class="cls-19"><path d="M617.82,492.62,662.9,384.16c4.23-10.18-5.19-25.5-20.59-34.48L384.52,199.34c-10.5-6.12-26.31-7.45-35.8-2.91l-95.61,45.8c-14.16,6.78-16.47,19.43-4.3,28.12L567.46,497.7C587.78,512.2,610.75,509.63,617.82,492.62Z" transform="translate(-67.05 -9.73)"/><path class="cls-20" d="M641,350.4,383.92,200.22c-10-5.85-25.1-7.11-34.13-2.75l-94.58,45.59c-13.41,6.47-15.52,18.49-4,26.73L567.6,494.86c19.23,13.68,41,11.3,47.76-4.74l45.14-106.9C664.58,373.55,655.67,359,641,350.4Z" transform="translate(-67.05 -9.73)"/><path class="cls-21" d="M353.91,197.73,254.6,246.07c-5.42,2.64-9,6.17-10.74,10,.63-5,4.49-9.71,11.31-13l94.65-45.63c4.68-2.26,11-3,17.32-2.38A31.06,31.06,0,0,0,353.91,197.73Z" transform="translate(-67.05 -9.73)"/><path class="cls-22" d="M610.34,491.15l48.19-111.83c1.69-3.93,1.23-8.68-.89-13.49,3.9,6.15,5.34,12.54,3.22,17.57l-45.1,107.06c-3.42,8.13-10.82,12.75-19.92,13.45A22.42,22.42,0,0,0,610.34,491.15Z" transform="translate(-67.05 -9.73)"/><path class="cls-23" d="M246.27,250.13c-2.46,5.66-.44,12,6.53,16.94l319.12,226c11.52,8.16,24.05,10.61,33.71,7.7-10,5.32-24.72,3.56-38-5.91L251.26,269.79C243.19,264,241.78,256.41,246.27,250.13Z" transform="translate(-67.05 -9.73)"/><path class="cls-24" d="M255.06,269.59l25.31,18a9,9,0,0,0-1.21.59,6.18,6.18,0,0,0-1,.71l-26.9-19.13c-11.57-8.24-9.46-20.26,4-26.73l9.92-4.78a4.28,4.28,0,0,0,1,1.32L259,243.11C245.32,249.74,243.16,261.16,255.06,269.59Z" transform="translate(-67.05 -9.73)"/><path class="cls-25" d="M567.05,490.79l-39-27.54a7.41,7.41,0,0,1-.62,1.31,5.45,5.45,0,0,1-.89,1.09L568,495.16c19.23,13.69,41,11.3,47.75-4.75l4.94-11.72a13.17,13.17,0,0,1-2.89-1.09L614.14,486C607.19,502.22,586.67,504.7,567.05,490.79Z" transform="translate(-67.05 -9.73)"/><path class="cls-26" d="M359.51,195a43.26,43.26,0,0,1,21.2,5.4L642,353.45c8.87,5.2,15.62,12.52,18.79,19.69-2.24-8-9.59-16.8-19.75-22.74L383.92,200.22A43.38,43.38,0,0,0,359.51,195Z" transform="translate(-67.05 -9.73)"/><path class="cls-27" d="M383.76,201.7l21.91,12.78a3.21,3.21,0,0,1,.6-.44,3.37,3.37,0,0,1,.74-.33l-23.09-13.49c-10-5.85-25.1-7.11-34.13-2.75l-7.19,3.46a11.34,11.34,0,0,1,1.84.65l5.26-2.51C359,194.56,373.44,195.66,383.76,201.7Z" transform="translate(-67.05 -9.73)"/><path class="cls-28" d="M638.79,351l-30.24-17.75a3,3,0,0,0,.51-.61,2.22,2.22,0,0,0,.29-.71l32,18.68c14.67,8.57,23.6,23.16,19.52,32.84l-3.27,7.77a15.58,15.58,0,0,0-2-1.8l2.33-5.67C662.16,373.77,653.87,359.81,638.79,351Z" transform="translate(-67.05 -9.73)"/><path class="cls-29" d="M355.05,199.05l-14.41,7.07c-1,.5-1.09,1.39-.19,2.12l1.95,1.56c2.27,1.82,2.1,4.12-.45,5.42l-22.22,11.34L295.43,239a13.52,13.52,0,0,1-11.15-.11l-2.85-1.41a5.48,5.48,0,0,0-4.5-.05L257.38,247c-9.69,4.75-11.1,13.45-2.74,19.36l318,224.6c13.81,9.76,29.45,8.13,34.49-3.34L634,426.52l21.29-48.37c3-6.92-3.34-17.51-14-23.78L379.85,201C372.56,196.76,361.56,195.86,355.05,199.05Z" transform="translate(-67.05 -9.73)"/><path class="cls-30" d="M605.55,486.54c-4.75,10.69-19.41,12.2-32.31,3.11L255.76,265.75c-7.82-5.52-6.53-13.68,2.53-18.15L277.82,238a3.4,3.4,0,0,1,2.76,0l2.86,1.42a15.52,15.52,0,0,0,12.89.13l46.47-23.81c3-1.51,3.15-4.15.51-6.26l-1.95-1.56c-.55-.45-.5-1,.11-1.3l14.4-7.09c6.1-3,16.45-2.15,23.28,1.86L640.86,355.08c10,5.89,16,15.85,13.13,22.32Z" transform="translate(-67.05 -9.73)"/><path d="M291.54,234.84c-1.42-.94-1.33-2.31.2-3.06a5.93,5.93,0,0,1,5.3.31c1.42.93,1.35,2.3-.16,3.06A5.89,5.89,0,0,1,291.54,234.84Z" transform="translate(-67.05 -9.73)"/><path class="cls-31" d="M297,232.14c1.36.89,1.3,2.21-.16,3a5.71,5.71,0,0,1-5.15-.3c-1.37-.9-1.28-2.23.19-2.95A5.71,5.71,0,0,1,297,232.14Z" transform="translate(-67.05 -9.73)"/><path class="cls-32" d="M291.74,234.74c-1.31-.87-1.23-2.14.19-2.84a5.51,5.51,0,0,1,4.91.29c1.31.86,1.25,2.13-.15,2.83A5.47,5.47,0,0,1,291.74,234.74Z" transform="translate(-67.05 -9.73)"/><path class="cls-33" d="M296,232.6a1,1,0,0,1-.1,1.92,3.71,3.71,0,0,1-3.34-.2c-.89-.58-.84-1.44.12-1.92A3.7,3.7,0,0,1,296,232.6Z" transform="translate(-67.05 -9.73)"/><path class="cls-34" d="M295.29,231.83c.44.29.42.71-.05.95a1.87,1.87,0,0,1-1.66-.1.5.5,0,0,1,.06-.94A1.85,1.85,0,0,1,295.29,231.83Z" transform="translate(-67.05 -9.73)"/><path class="cls-35" d="M295,233.12c.36.23.34.57,0,.76a1.45,1.45,0,0,1-1.33-.08c-.36-.23-.34-.57,0-.76A1.45,1.45,0,0,1,295,233.12Z" transform="translate(-67.05 -9.73)"/><path d="M299.79,230.72c-.83-.54-.79-1.33.08-1.76a3.43,3.43,0,0,1,3.07.19c.83.53.8,1.32-.06,1.76A3.44,3.44,0,0,1,299.79,230.72Z" transform="translate(-67.05 -9.73)"/><path class="cls-36" d="M302.78,229.23c.75.48.72,1.19-.06,1.58a3.08,3.08,0,0,1-2.77-.17c-.75-.48-.71-1.19.07-1.58A3.06,3.06,0,0,1,302.78,229.23Z" transform="translate(-67.05 -9.73)"/><path class="cls-37" d="M302,229.6c.35.23.34.56,0,.75a1.48,1.48,0,0,1-1.31-.08c-.35-.23-.34-.57,0-.75A1.44,1.44,0,0,1,302,229.6Z" transform="translate(-67.05 -9.73)"/><path class="cls-38" d="M274.16,294l-2.18,2.2a2,2,0,0,1-2.46.27l-7.26-5.25a1.33,1.33,0,0,1-.08-2.09l2.17-2.17a2,2,0,0,1,2.44-.27l7.27,5.2A1.35,1.35,0,0,1,274.16,294Z" transform="translate(-67.05 -9.73)"/><path class="cls-39" d="M273.5,294.71l-1.86,1.88a1.87,1.87,0,0,1-2.34.25l-7.38-5.34a1.26,1.26,0,0,1-.08-2l1.85-1.86a1.86,1.86,0,0,1,2.32-.25l7.39,5.3A1.28,1.28,0,0,1,273.5,294.71Z" transform="translate(-67.05 -9.73)"/><path class="cls-40" d="M302.18,314.17,300,316.44a2,2,0,0,1-2.54.27l-17.82-12.89a1.37,1.37,0,0,1-.11-2.15l2.18-2.21a2,2,0,0,1,2.49-.27L302,312A1.42,1.42,0,0,1,302.18,314.17Z" transform="translate(-67.05 -9.73)"/><path class="cls-41" d="M301.52,314.86l-1.87,1.94a1.92,1.92,0,0,1-2.42.25l-18-13a1.32,1.32,0,0,1-.11-2.05l1.87-1.89a1.87,1.87,0,0,1,2.36-.25l18,12.89A1.35,1.35,0,0,1,301.52,314.86Z" transform="translate(-67.05 -9.73)"/><path class="cls-42" d="M327.11,332.08l-2.21,2.34a2,2,0,0,1-2.6.26l-18.56-13.42a1.43,1.43,0,0,1-.16-2.22l2.2-2.29a2,2,0,0,1,2.55-.26l18.58,13.31A1.48,1.48,0,0,1,327.11,332.08Z" transform="translate(-67.05 -9.73)"/><path class="cls-43" d="M326.44,332.78l-1.88,2a1.93,1.93,0,0,1-2.48.25l-18.69-13.52a1.37,1.37,0,0,1-.15-2.12l1.87-1.95a1.93,1.93,0,0,1,2.43-.25l18.71,13.43A1.4,1.4,0,0,1,326.44,332.78Z" transform="translate(-67.05 -9.73)"/></g><path class="cls-44" d="M257.75,283.22l-.1,3c0,.9-.57,1.27-1.21.82l-6.5-4.62a3.19,3.19,0,0,1-1.08-2.43l.09-3c0-.9.56-1.28,1.19-.83l6.52,4.57A3.2,3.2,0,0,1,257.75,283.22Z" transform="translate(-67.05 -9.73)"/><path class="cls-45" d="M257.72,284.14l-.09,2.58c0,.86-.54,1.21-1.14.78l-6.61-4.7a3,3,0,0,1-1-2.31l.08-2.56c0-.85.53-1.21,1.12-.79l6.63,4.66A3,3,0,0,1,257.72,284.14Z" transform="translate(-67.05 -9.73)"/><path class="cls-46" d="M283.05,301l-.14,3.09c0,.93-.62,1.29-1.29.81l-16.09-11.42a3.24,3.24,0,0,1-1.11-2.48l.11-3c0-.92.59-1.29,1.24-.83L281.9,298.5A3.25,3.25,0,0,1,283.05,301Z" transform="translate(-67.05 -9.73)"/><path class="cls-47" d="M283,302l-.12,2.64c0,.87-.59,1.22-1.23.76l-16.2-11.5a3.06,3.06,0,0,1-1.06-2.36l.1-2.6c0-.87.56-1.22,1.18-.79l16.24,11.44A3.07,3.07,0,0,1,283,302Z" transform="translate(-67.05 -9.73)"/></g><g id="圖層_3" data-name="圖層 3"><path class="cls-48" d="M270.3,446.44l-.8,7.58a4.81,4.81,0,0,0,4.43,1.32,19.25,19.25,0,0,0,4.6-1.41s0-1.58.55-1.72,1.31,1.28,2.82,1,13.37-4.13,12.4-6.78-2.75-2.11-4.25-2.11-12.93,1.23-12.93,1.23Z" transform="translate(-67.05 -9.73)"/><path class="cls-48" d="M203.48,444.55l-.8,7.76a4.82,4.82,0,0,0,4.47,1.36,19.5,19.5,0,0,0,4.66-1.45s-.05-1.62.55-1.76,1.33,1.31,2.85,1,13.51-4.24,12.53-6.95-2.78-2.17-4.3-2.17-13.07,1.27-13.07,1.27Z" transform="translate(-67.05 -9.73)"/><path class="cls-49" d="M188.09,252.45s-.54,13.72,1.5,17.25,11.13,7.2,11.13,7.2l.82-28.52Z" transform="translate(-67.05 -9.73)"/><path class="cls-50" d="M255,257.75s2.14,2.26,7.82,7.65,11.66,11,11.66,11,8.72,5.19,13.53,6.86A41.2,41.2,0,0,0,298.92,285a14.44,14.44,0,0,1,4.61-1.47c2.45-.29,2.94.78,2.94.78s2.74.4,3.52,1.28.39,4.21,0,4.7-.49,1.47-1.07,1.86-.49,1.37-1.08,1.47-.1.79-1.57,1.28-4.7-2.36-6.47-4.12-13.62-.78-21.65-3.72-8.43-3.73-8.43-3.73a71.69,71.69,0,0,1-18.42-10c-8.82-6.76-11.46-9.11-11.46-9.11Z" transform="translate(-67.05 -9.73)"/><path class="cls-51" d="M201.23,444.61a10.07,10.07,0,0,0,5.79,2.67c3.34.23,7.8-2.67,7.8-2.67s6.23-59.25,6.23-64.37v-10s5.57-26.29,4.9-40.54-25.85-30.29-25.85-30.29-1.57-4.9,0,21.6a421.87,421.87,0,0,0,4.69,44.1,53.57,53.57,0,0,0-2.89,15.59C201.45,390,201.23,444.61,201.23,444.61Z" transform="translate(-67.05 -9.73)"/><path class="cls-52" d="M200.12,305.62s-.67,13.14,7.79,17.15,11.81,3.57,11.81,3.57,7.12,15.37,12.91,25.83,11.14,18.49,11.14,18.49-1.11,9.13,4.46,25.62,17.82,53,17.82,53,5.56,2.45,9.13,0,3.78-5.35,2.89-8.69S265.15,386,263.37,380s-3.56-10.25-3.56-10.25,1.56-3.34-2.11-19.6-7.69-38.31-13.48-44.55S200.12,305.62,200.12,305.62Z" transform="translate(-67.05 -9.73)"/><path class="cls-53" d="M212.89,200s.85,6.75.38,7.59-5,2.62-5,2.62l17,5.06,3.18-2a11.78,11.78,0,0,1-2.43-5c-.38-2.53.56-8.34.56-8.34Z" transform="translate(-67.05 -9.73)"/><path class="cls-54" d="M198.75,257.88a36.29,36.29,0,0,1-7-1.52c-4.05-1.26-4.56-2.53-4.56-2.53L188.1,227s-.26-12.81,6.08-15.22,17-2.73,17-2.73-.22,1.36,6.29,2.16a42.5,42.5,0,0,0,9.74.36s7.55,4.79,11.54,6.15,9.53,1.85,12.06,12.54.58,10.7,2.33,14.3,4.48,12.16,4.57,14-12.25,6.22-12.25,6.22l2,41.82s-1,6.81-18.48,6.33-31-3.51-31.51-5.84S198.75,257.88,198.75,257.88Z" transform="translate(-67.05 -9.73)"/><path class="cls-55" d="M219.17,200.16s6.25,5.78,9.55,4.6,3.42-4.25,3.42-5.9,3.14-6.22,2-10.53-1.69-3-1.78-4.67,1.68-3.19-.85-7.6-18.64,11.06-18.64,11.06Z" transform="translate(-67.05 -9.73)"/><path class="cls-56" d="M205,169.73s-7.93,6.93-7.26,11.22,4.62,7.59,5.11,9.08-.33,2.15,1,3.8,5.61,4.95,6.44,7.09,1,4.79,3.79,4.62,6.28-2.47,6.28-7.75-1.16-6.77,1-7.93,2.47.66,4.12,2,1.48-.84,1.3-2.11-2.07-4.6-1-5.23,2,.72,2.61-.9-.54-5,.46-5.5,3.6.9,3.78.18-.54-2.17,0-3.43,6.14-4.33,4.15-7.58-5.32-1.35-7.93-2.61-1.81-3.07-3.7-2.89-2.53,2.44-4.78,2.26-1.54-2.62-6.59-1.63-5.05,1.27-6.31,3A28.57,28.57,0,0,0,205,169.73Z" transform="translate(-67.05 -9.73)"/></g><g id="圖層_4" data-name="圖層 4"><path class="cls-57" d="M596.68,344s2,10.68,1.89,12.7-3.11,7.7-6.62,7.7-5-3.1-5.13-5.54S592.7,344,592.7,344Z" transform="translate(-67.05 -9.73)"/><polygon class="cls-57" points="493.86 329.65 494.6 337 488.08 345.89 477.89 339.37 483.94 328.94 493.86 329.65"/><path class="cls-58" d="M551.1,69.72s-1.42,11.22-1.21,12.94.76,1.56.59,3a33.64,33.64,0,0,0-.55,3.47c0,2.34,3.31,9,3.31,9l20-2.86L577,92.4l1.56-11.52-13.95-8.82Z" transform="translate(-67.05 -9.73)"/><path class="cls-58" d="M520.14,140.94s-2.92,4.91-3.86,6.47-10.23,6.36-16.59,9.6-12.1,7.93-14.29,7.51-7.09-4.59-8-4.28,1.88,2.5,1.25,3.13-11.16,2.4-10.43,4,1.16.63,1.25,1.2-.54.41-.18,1.12,1.16.18,1.38.62-.44.49.09.89,1.47-.49,1.74,0-.63.85,0,1.2,5.52-.93,7.43-1.91,3.34-2.9,4.77-2.94,26.14-7.25,28.88-8.32c3.23-1.26,6.74-2.16,8.58-3.45s6.74-7.38,6.74-7.38Z" transform="translate(-67.05 -9.73)"/><path class="cls-59" d="M546.7,197l1.89,143.81a11.52,11.52,0,0,0,5.75,1.47,26.15,26.15,0,0,0,7.37-.88s5.78-48.31,6-53.4-2.24-15.7-2.24-15.7l7.13-34.44-4-48.08Z" transform="translate(-67.05 -9.73)"/><path class="cls-60" d="M593.29,194.87s1.31,31.14,1.87,43.25-.74,30.66-.93,32.93,6.61,8.33,7.18,26.49-1.7,48.07-1.7,48.07a23.61,23.61,0,0,1-6.42,1.12,20.3,20.3,0,0,1-6.25-1.57s-9.75-61.59-9.94-66.43S565.92,235,564.74,223s-3.83-27.06-3.83-27.06Z" transform="translate(-67.05 -9.73)"/><path class="cls-61" d="M544.61,136.75s-11.86,15.78-13.15,16.1-7.1-5.08-9.11-7.5-5-4.92-3.71-6,17.18-27.9,22.58-29.76,15-2.68,15-2.68l17.11,1.51s7.43,4.72,12.27,6.42,9.11,3.14,11.13,9.51,1.85,7.66,2.74,10.24,4.2,9.36,4,10.33-3.91,5.29-6.76,6.92a25.36,25.36,0,0,1-6.1,2.37s-.55,7.62-.44,11.15,2.53,13.87,2.53,13.87l1.65,15.08s-5.51,10.68-25.87,8.37S545.25,198,545.25,198s2.2-30.5,2-36.34.33-16-.22-19.16A15.63,15.63,0,0,0,544.61,136.75Z" transform="translate(-67.05 -9.73)"/><path class="cls-62" d="M557,100.38s1.41,3.89,1.35,5.52-2.13,1-2.13,1-.78,7.26,6.88,7.51,9.35-2.5,9.85-4.05a4.57,4.57,0,0,0,.38-1.95s-1.34.08-1.53-.75a23,23,0,0,1-.4-7.07c.36-3.22.55-4.48.55-4.48Z" transform="translate(-67.05 -9.73)"/><path class="cls-58" d="M588.11,156a.94.94,0,0,1,.6-1.35c2.1-.52,6.49-1.74,8.76-3.32a16.94,16.94,0,0,0,4.28-3.94s2.87,9.82,3.61,14.72,2.12,9.65,1.55,11.61-9.39,14.46-14,20.67-11.77,14.54-12.5,15.85-1.8,3.68-3.84,5-3.18,2.59-3.77,2.38a4.17,4.17,0,0,1-.78-.35s-.75.5-1.12.37a6.14,6.14,0,0,1-1-.56,1.39,1.39,0,0,1-1.07.43,1.08,1.08,0,0,1-1-.75,2.9,2.9,0,0,1-1-.21,1.38,1.38,0,0,1-.56-2.36c1-.88,5.06-2.76,6.13-4.63s-.88-3-2-3.32-.16-1.49,1.56-1.41,4.55,2.36,5.51,1.45,7-16.7,10.69-22.48,7.41-8.82,7.34-11.69C595.43,169.68,589.94,159.36,588.11,156Z" transform="translate(-67.05 -9.73)"/><path class="cls-63" d="M552.43,79.55c1.81-.16,3.25,1,3,1.55s-1.28-.22-2.74-.2c-1.28,0-2.34,1.08-2.7.49S551.05,79.66,552.43,79.55Z" transform="translate(-67.05 -9.73)"/><ellipse class="cls-63" cx="486.41" cy="74.2" rx="0.8" ry="0.89"/><path class="cls-63" d="M562.87,81c1.62.39,2.5,1.92,2,2.35s-1-.59-2.31-1c-1.11-.36-2.38.33-2.5-.35S561.64,80.66,562.87,81Z" transform="translate(-67.05 -9.73)"/><ellipse class="cls-63" cx="562.2" cy="85.06" rx="0.89" ry="0.8" transform="translate(329.93 619.39) rotate(-81.71)"/><path class="cls-64" d="M552.4,72.81s1.32,2.78,3.61,3.27,8.85-1,11,1.15,4.26,5.41,3.44,9.67,1.05-.62,2.2-.87,3.6-.57,3.52,3.93-5.48,5.07-5.48,2.53-.29-3.2-.69-3.1-1.71,4.3-4,4.1-3.2-2.45-5.3-2.55-3.1.35-4.26.25-2.95-1.2-4.45-1.6-1.4,1.55-1.25,2.3,1.55,5.65,1.8,7.41a4.15,4.15,0,0,0,4,3.65c2.21-.1,8.88.64,15.15-4.79s6.14-5.3,7.57-9.06,4.12-10,2-14.55-4.83-5.86-6.42-5.9-.09-3.78-4.64-5.05-11.15-1-12.42-1.38c-2.72-.78-3.21-3.29-4-3.08s0,4.14,0,4.14-3,.59-4.61-.64c-1.13-.86-1.23-2.35-1.87-1.55s-1.21,4.68-.31,7,2.11,2.07,2.32,3.34-.93,5.9.12,7.48,1-.51,1-.51a20.53,20.53,0,0,1,1-4.6C552,72.69,552.4,72.81,552.4,72.81Z" transform="translate(-67.05 -9.73)"/><path class="cls-15" d="M554.24,92.16c.22-.08,1.65.69,2.73.88s2.88-.51,3-.17a2.7,2.7,0,0,1-2.46,2.3,3.55,3.55,0,0,1-2.77-.88C554,93.58,553.79,92.32,554.24,92.16Z" transform="translate(-67.05 -9.73)"/></g><g id="圖層_6" data-name="圖層 6"><path id="SVGID-5" data-name="SVGID" class="cls-17" d="M356.6,143.9l81.15,34.78-25,17.59s-5.61.8-6.61-5.81-13.83-2.6-16.84-.6-9.09,6-6.16,9.66,7.31,1.83,11.09,2.31a21.87,21.87,0,0,1,6.58,1.95S375.93,221.09,375,221.09s-34.86-13.65-34.86-13.65-2.19.61-2.43,2.07,1.7,5.12-1.59,7.07-13.16,1.62-18.89-1.71c-3.58-2.08-8.49-7.42-3.29-10,3.46-1.71,8.42.4,11.2-.76,2.62-1.09,2.27-2.22,1.48-2.53-8.77-3.4-33.5-13.15-33.5-13.84S356.6,143.9,356.6,143.9Z" transform="translate(-67.05 -9.73)"/><polygon class="cls-17" points="226.03 158.79 226.03 178.02 307.91 211.36 333.75 194.06 333.75 174.82 307.91 192.13 226.03 158.79"/><polygon class="cls-17" points="244.6 178.69 244.6 197.92 270.95 203.79 270.97 184.23 244.6 178.69"/><polygon class="cls-17" points="370.7 149.72 370.7 168.95 345.69 186.54 345.69 167.31 370.7 149.72"/><g class="cls-65"><path class="cls-66" d="M617.1,473c22.31,10.3,55.76-55,70.72-128.6,12.1-59.57,7.47-104.41-8.21-109.62-15.43-5.14-40,28.72-57.9,84.22C599.76,387.12,595.27,462.9,617.1,473Z" transform="translate(-67.05 -9.73)"/><path class="cls-67" d="M249.32,198.05s-7.51,6.85-12.94,13c-4.44,5-7.5,16.43,5.4,23.29L590.14,419.71c21.63,11.52,39.21,3.66,44.53-3.28a174.59,174.59,0,0,0,12.47-19.5Z" transform="translate(-67.05 -9.73)"/><path d="M648.93,392.21l29.41-113.7c2.77-10.68-8.71-24.52-25.21-31.25L376.79,134.57c-11.25-4.59-27.1-3.69-35.85,2.14l-88.25,58.76c-13.07,8.7-13.58,21.55-.31,28.44l347.4,180.4C621.93,415.81,644.31,410.05,648.93,392.21Z" transform="translate(-67.05 -9.73)"/><path class="cls-68" d="M651.93,248.15,376.32,135.52c-10.74-4.38-25.85-3.52-34.18,2.06L254.89,196c-12.37,8.28-12.78,20.48-.16,27L599.52,401.47c21,10.85,42.16,5.44,46.62-11.38l29.69-112.18C678.52,267.76,667.65,254.57,651.93,248.15Z" transform="translate(-67.05 -9.73)"/><path class="cls-69" d="M346.26,137.27l-91.55,61.79c-5,3.38-8.09,7.38-9.23,11.41-.08-5,3.09-10.23,9.38-14.45l87.3-58.45c4.32-2.9,10.46-4.51,16.83-4.79A30.9,30.9,0,0,0,346.26,137.27Z" transform="translate(-67.05 -9.73)"/><path class="cls-70" d="M641.31,391.81l32-117.49c1.12-4.13,0-8.76-2.78-13.23,4.73,5.54,7.05,11.67,5.66,17L646.59,390.37c-2.25,8.53-8.93,14.14-17.84,16.11A22.43,22.43,0,0,0,641.31,391.81Z" transform="translate(-67.05 -9.73)"/><path class="cls-71" d="M247,204.25c-1.64,5.95,1.25,11.95,8.84,15.86l347.68,179c12.54,6.46,25.3,7.13,34.45,2.9-9.18,6.67-24,7-38.48-.53L254.73,223C245.93,218.46,243.47,211.09,247,204.25Z" transform="translate(-67.05 -9.73)"/><path class="cls-72" d="M258.46,222.28l27.59,14.3a10.5,10.5,0,0,0-1.12.76,6.46,6.46,0,0,0-.88.85L254.73,223c-12.62-6.53-12.21-18.73.16-27l9.15-6.13a4.36,4.36,0,0,0,1.14,1.17l-6.55,4.47C246,204,245.5,215.6,258.46,222.28Z" transform="translate(-67.05 -9.73)"/><path class="cls-73" d="M598.41,397.52l-42.47-21.79a7.36,7.36,0,0,1-.44,1.38,5.24,5.24,0,0,1-.72,1.2l45.2,23.4c21,10.86,42.18,5.44,46.62-11.39L649.84,378a12.43,12.43,0,0,1-3-.67l-2.48,8.81C639.75,403.21,619.78,408.54,598.41,397.52Z" transform="translate(-67.05 -9.73)"/><path class="cls-74" d="M351.41,133.78a43.47,43.47,0,0,1,21.76,2.38L653.31,251c9.52,3.9,17.23,10.21,21.37,16.86-3.35-7.65-11.85-15.29-22.75-19.74L376.32,135.52A43.45,43.45,0,0,0,351.41,133.78Z" transform="translate(-67.05 -9.73)"/><path class="cls-75" d="M376.37,137l23.48,9.58a3.74,3.74,0,0,1,.53-.52,3.86,3.86,0,0,1,.69-.43l-24.75-10.12c-10.74-4.38-25.85-3.52-34.18,2.06L335.51,142a10.75,10.75,0,0,1,1.91.39l4.86-3.22C350.86,133.41,365.3,132.47,376.37,137Z" transform="translate(-67.05 -9.73)"/><path class="cls-76" d="M649.81,249,617.39,235.7a3,3,0,0,0,.42-.67,2.35,2.35,0,0,0,.18-.75l34.29,14c15.72,6.43,26.61,19.62,23.93,29.78l-2.15,8.15a16,16,0,0,0-2.25-1.5l1.52-5.94C676.15,268.32,666,255.66,649.81,249Z" transform="translate(-67.05 -9.73)"/><path class="cls-77" d="M347.57,138.41l-13.28,9c-.92.63-.88,1.53.11,2.12l2.15,1.27c2.51,1.49,2.66,3.79.32,5.43l-20.41,14.35L294.14,186.3a13.55,13.55,0,0,1-11.06,1.45l-3-1a5.51,5.51,0,0,0-4.46.58l-18,12.24c-8.93,6.07-9.1,14.88,0,19.55L603.91,396.9c15,7.72,30.29,3.91,33.68-8.15l18-64.25,14.28-50.87c2.05-7.28-5.76-16.87-17.22-21.58L372.4,136.9C364.58,133.69,353.57,134.34,347.57,138.41Z" transform="translate(-67.05 -9.73)"/><path class="cls-78" d="M635.92,387.92c-3.2,11.25-17.5,14.8-31.55,7.61L258.62,218.38c-8.52-4.36-8.38-12.63,0-18.32l18-12.26a3.32,3.32,0,0,1,2.74-.36l3,1a15.51,15.51,0,0,0,12.77-1.68l42.68-30.09c2.71-1.92,2.53-4.55-.38-6.27l-2.15-1.28c-.61-.36-.64-.91-.07-1.29l13.26-9.05c5.62-3.82,16-4.44,23.31-1.42L652.44,252.81c10.75,4.42,18.07,13.44,16.13,20.25Z" transform="translate(-67.05 -9.73)"/><path d="M289.71,182.76c-1.54-.73-1.64-2.1-.24-3.06a5.91,5.91,0,0,1,5.3-.43c1.54.71,1.66,2.08.27,3A5.91,5.91,0,0,1,289.71,182.76Z" transform="translate(-67.05 -9.73)"/><path class="cls-79" d="M294.68,179.33c1.48.69,1.6,2,.26,2.94a5.7,5.7,0,0,1-5.14.43c-1.49-.71-1.58-2-.23-2.95A5.7,5.7,0,0,1,294.68,179.33Z" transform="translate(-67.05 -9.73)"/><path class="cls-80" d="M289.9,182.63c-1.43-.67-1.52-1.94-.22-2.83a5.5,5.5,0,0,1,4.91-.41c1.42.67,1.53,1.93.24,2.83A5.47,5.47,0,0,1,289.9,182.63Z" transform="translate(-67.05 -9.73)"/><path class="cls-81" d="M293.83,179.91a1,1,0,0,1,.17,1.91,3.69,3.69,0,0,1-3.34.28,1,1,0,0,1-.15-1.91A3.71,3.71,0,0,1,293.83,179.91Z" transform="translate(-67.05 -9.73)"/><path class="cls-82" d="M293,179.26c.48.22.51.64.08.94a1.85,1.85,0,0,1-1.65.14.5.5,0,0,1-.08-1A1.82,1.82,0,0,1,293,179.26Z" transform="translate(-67.05 -9.73)"/><path class="cls-83" d="M292.88,180.57c.39.18.42.52.07.76a1.49,1.49,0,0,1-1.33.11c-.39-.18-.41-.52-.06-.76A1.47,1.47,0,0,1,292.88,180.57Z" transform="translate(-67.05 -9.73)"/><path d="M297.3,177.52c-.9-.41-1-1.2-.17-1.75a3.46,3.46,0,0,1,3.07-.25c.9.42,1,1.2.18,1.76A3.45,3.45,0,0,1,297.3,177.52Z" transform="translate(-67.05 -9.73)"/><path class="cls-84" d="M300.05,175.62c.81.38.88,1.08.16,1.58a3.06,3.06,0,0,1-2.76.22c-.81-.37-.88-1.08-.15-1.58A3.1,3.1,0,0,1,300.05,175.62Z" transform="translate(-67.05 -9.73)"/><path class="cls-85" d="M299.37,176.1c.38.17.41.51.07.74a1.45,1.45,0,0,1-1.3.11c-.38-.18-.42-.52-.08-.75A1.47,1.47,0,0,1,299.37,176.1Z" transform="translate(-67.05 -9.73)"/><path class="cls-86" d="M280.81,243.82,279,246.3a2,2,0,0,1-2.41.61l-7.92-4.18a1.33,1.33,0,0,1-.37-2.06l1.84-2.45a2,2,0,0,1,2.38-.61l7.93,4.13A1.35,1.35,0,0,1,280.81,243.82Z" transform="translate(-67.05 -9.73)"/><path class="cls-87" d="M280.25,244.57l-1.58,2.12a1.9,1.9,0,0,1-2.29.58L268.33,243a1.26,1.26,0,0,1-.36-2l1.57-2.09a1.87,1.87,0,0,1,2.27-.58l8.06,4.21A1.29,1.29,0,0,1,280.25,244.57Z" transform="translate(-67.05 -9.73)"/><path class="cls-88" d="M311.38,259.81l-1.86,2.56A2,2,0,0,1,307,263L287.6,252.73a1.38,1.38,0,0,1-.42-2.11l1.85-2.5a2,2,0,0,1,2.42-.61l19.46,10.15A1.41,1.41,0,0,1,311.38,259.81Z" transform="translate(-67.05 -9.73)"/><path class="cls-89" d="M310.81,260.59l-1.58,2.18a1.91,1.91,0,0,1-2.36.59L287.29,253a1.31,1.31,0,0,1-.4-2l1.58-2.13a1.89,1.89,0,0,1,2.31-.59l19.59,10.25A1.34,1.34,0,0,1,310.81,260.59Z" transform="translate(-67.05 -9.73)"/><path class="cls-90" d="M338.57,274l-1.86,2.63a2,2,0,0,1-2.54.63l-20.26-10.69a1.43,1.43,0,0,1-.47-2.18l1.86-2.56a2,2,0,0,1,2.48-.62l20.27,10.57A1.47,1.47,0,0,1,338.57,274Z" transform="translate(-67.05 -9.73)"/><path class="cls-91" d="M338,274.84l-1.59,2.24a1.94,1.94,0,0,1-2.42.6l-20.4-10.77a1.36,1.36,0,0,1-.45-2.07l1.58-2.2a1.94,1.94,0,0,1,2.37-.59l20.41,10.67A1.41,1.41,0,0,1,338,274.84Z" transform="translate(-67.05 -9.73)"/></g><polyline class="cls-17" points="398.16 168.67 398.16 186.54 420.08 183.51 418.97 170.47 398.16 168.67"/><ellipse class="cls-17" cx="396.23" cy="199.51" rx="16.55" ry="8.33"/></g><g id="圖層_8" data-name="圖層 8"><path class="cls-17" d="M416.76,217.72l34.29-15.07a4.19,4.19,0,0,1,3,3c.53,2.4-2.13,4.79,2.66,7.06s18.63-2,22-4.66,4.79-5.38,1.46-7-5.05-.5-8.91-1.44a16.19,16.19,0,0,1-6-2.66s33-14.37,33.67-14.37,49.27,24.1,49.27,24.1l.18,24.69a2.85,2.85,0,0,1-1.72,2.65c-10.33,4.46-60.94,26-64.66,27.42-2,.77-27.28-18.61-27.28-18.61s.29-1.67,5.37-1.67,11.79.21,13.52-3-3.89-8.22-8.33-9.85-8.93-2-12.11-1.19a4.57,4.57,0,0,0-3.42,4.26c-.49,4.24-3.08,5-4.37,4.61S416.76,217.72,416.76,217.72Z" transform="translate(-67.05 -9.73)"/><path class="cls-92" d="M548.35,206.73v24.55a3,3,0,0,1-1.85,2.8L482,261.46V242.88s43.78-18.94,58.64-24.77a14.35,14.35,0,0,0,5.6-5,32.55,32.55,0,0,0,2-6.39A.1.1,0,0,1,548.35,206.73Z" transform="translate(-67.05 -9.73)"/><g class="cls-93"><path class="cls-94" d="M175.94,73.65s-6.42,3.46-11.33,6.61c-3.94,2.53-9.08,8.72-4.7,13.87L312.37,273.51c12.31,14.48,33.7,18,43.57,16.69,12.51-1.62,26.88-4.95,26.88-4.95Z" transform="translate(-67.05 -9.73)"/><path d="M388.32,283.43l148.23-63c17.76-7.55,15-24.11-5-36.26l-239-145.51c-7-4.28-20.66-4.33-30.67-.24l-83.19,34c-10.12,4.13-14.62,11.62-9.88,16.9l161.48,180C343.86,284.38,370.22,291.12,388.32,283.43Z" transform="translate(-67.05 -9.73)"/><path class="cls-95" d="M528.53,184.48,291.6,39.39c-6.69-4.1-19.67-4.16-29.22-.26L179.76,72.87C170.11,76.81,165.85,84,170.39,89L331.84,267.66c12.9,14.27,37.88,20.6,55,13.31l146.21-62.13C549.89,211.69,547.36,196,528.53,184.48Z" transform="translate(-67.05 -9.73)"/><path class="cls-96" d="M265.79,39.1,178.58,74.73a23.37,23.37,0,0,0-9,6c1.64-3,5.15-5.83,10.11-7.86l82.68-33.76a41.74,41.74,0,0,1,16.07-2.86A42,42,0,0,0,265.79,39.1Z" transform="translate(-67.05 -9.73)"/><path class="cls-97" d="M380.3,279.79l152.87-64.93c6.81-2.89,10.5-7.21,11.21-12.11,1.33,6.62-2.16,12.68-10.82,16.36L387.14,281.33c-8.81,3.75-19.89,3.84-30.35,1C365.08,283.47,373.37,282.74,380.3,279.79Z" transform="translate(-67.05 -9.73)"/><path class="cls-98" d="M172.56,77.18c-2.89,3.39-3.35,7.19-.58,10.21L337.12,268c7.82,8.55,19.94,14.28,32.26,16-14-.41-28.66-6.48-37.54-16.3L170.39,89C167.21,85.46,168.34,80.92,172.56,77.18Z" transform="translate(-67.05 -9.73)"/><path class="cls-99" d="M172.64,88.92l10.28,11.35c-.3.09-.6.19-.9.31a6.45,6.45,0,0,0-.79.39L170.39,89c-4.54-5-.28-12.16,9.37-16.1l7.41-3a1.6,1.6,0,0,0,.24.83L182,72.89C172.11,76.94,167.93,83.76,172.64,88.92Z" transform="translate(-67.05 -9.73)"/><path class="cls-100" d="M333.29,265.1l-25-27.32a7.28,7.28,0,0,1-2.49,1L332.12,268C345,282.26,370,288.6,387.19,281.31l13.18-5.6a16.5,16.5,0,0,1-2.91-1.75l-9.59,4C370.35,285.39,346.55,279.64,333.29,265.1Z" transform="translate(-67.05 -9.73)"/><path class="cls-101" d="M271.75,36.67c6.44-.44,12.75.56,16.78,3l238.9,147.75c11.25,7,16.72,15.4,15.71,22.69,3.59-7.81-1.64-17.73-14.61-25.68L291.6,39.39C286.93,36.52,279.19,35.63,271.75,36.67Z" transform="translate(-67.05 -9.73)"/><path class="cls-102" d="M290.8,40.58l15.1,9.27a7.37,7.37,0,0,1,1.68-.68l-16-9.78c-6.69-4.1-19.67-4.16-29.22-.26l-7.35,3a5.75,5.75,0,0,1,1.27.4l5.37-2.17C271.5,36.35,283.93,36.34,290.8,40.58Z" transform="translate(-67.05 -9.73)"/><path class="cls-103" d="M524,184.47l-36-22.29a9.71,9.71,0,0,0,1.35-.45,5.47,5.47,0,0,0,1.07-.59l38.52,23.59c18.86,11.55,21.4,27.24,4.57,34.4l-13,5.52a10.85,10.85,0,0,0-1.91-2.16l9.29-4C545.13,211.14,543.17,196.29,524,184.47Z" transform="translate(-67.05 -9.73)"/><path class="cls-104" d="M266.23,40.06l-14.79,6c-1,.41-1.41,1.08-.95,1.58l1,1.08c1.15,1.26.13,3-2.41,4l-21.17,8.65-21.21,8.68c-2.55,1-5.7,1-7.4,0l-1.45-.89a3.57,3.57,0,0,0-2.91,0L180,75.28c-7,2.88-10.1,8.08-6.77,11.7l165.64,180c9.45,10.27,27.4,14.72,39.68,9.51l75.21-31.93,74.57-31.66c12-5.11,10.4-16.35-3.11-24.75L287.45,40.27C282.64,37.28,273.19,37.22,266.23,40.06Z" transform="translate(-67.05 -9.73)"/><path class="cls-105" d="M377.37,275.24c-11.46,4.86-28.29.72-37.16-8.87L174.05,86.65c-3.13-3.39-.26-8.28,6.34-11l14.94-6.1a2.11,2.11,0,0,1,1.78,0l1.45.89c2,1.22,5.58,1.23,8.55,0l42.43-17.35c3-1.21,4.13-3.16,2.79-4.63l-1-1.08c-.28-.31,0-.71.58-1l14.82-6.06c6.53-2.66,15.41-2.6,19.91.21L523.93,188.65c12.61,7.87,14.11,18.4,2.86,23.18Z" transform="translate(-67.05 -9.73)"/><path d="M205.32,67.41c-.67-.6-.18-1.5,1.08-2a3.79,3.79,0,0,1,3.52.14c.69.6.21,1.51-1.06,2A3.83,3.83,0,0,1,205.32,67.41Z" transform="translate(-67.05 -9.73)"/><path class="cls-106" d="M209.84,65.56c.66.58.2,1.46-1,2a3.66,3.66,0,0,1-3.4-.14c-.65-.58-.18-1.45,1-1.95A3.68,3.68,0,0,1,209.84,65.56Z" transform="translate(-67.05 -9.73)"/><path class="cls-107" d="M205.5,67.34c-.63-.56-.18-1.39,1-1.87a3.53,3.53,0,0,1,3.26.13c.64.55.2,1.4-1,1.88A3.51,3.51,0,0,1,205.5,67.34Z" transform="translate(-67.05 -9.73)"/><path class="cls-108" d="M209.06,65.88c.43.38.13,1-.66,1.27a2.38,2.38,0,0,1-2.22-.09c-.42-.38-.11-.94.68-1.27A2.4,2.4,0,0,1,209.06,65.88Z" transform="translate(-67.05 -9.73)"/><path class="cls-109" d="M208.8,65.38c.22.19.07.47-.33.63a1.16,1.16,0,0,1-1.09-.05c-.21-.18-.07-.46.33-.62A1.2,1.2,0,0,1,208.8,65.38Z" transform="translate(-67.05 -9.73)"/><path class="cls-110" d="M208.2,66.24c.17.15.05.37-.27.5a1,1,0,0,1-.88,0c-.17-.15-.05-.37.27-.5A1,1,0,0,1,208.2,66.24Z" transform="translate(-67.05 -9.73)"/><path d="M212.25,64.58c-.4-.35-.12-.88.62-1.18a2.3,2.3,0,0,1,2.09.07c.41.35.13.88-.62,1.19A2.27,2.27,0,0,1,212.25,64.58Z" transform="translate(-67.05 -9.73)"/><path class="cls-111" d="M214.82,63.53c.37.31.12.79-.55,1.07a2,2,0,0,1-1.88-.08c-.36-.31-.11-.79.56-1.06A2.07,2.07,0,0,1,214.82,63.53Z" transform="translate(-67.05 -9.73)"/><path class="cls-112" d="M214.18,63.79c.17.15.06.38-.26.5a1,1,0,0,1-.89,0c-.17-.15-.05-.37.26-.5A1,1,0,0,1,214.18,63.79Z" transform="translate(-67.05 -9.73)"/><path class="cls-113" d="M177.47,103.84l-1.86,1.2a1.27,1.27,0,0,1-1.52.06l-2.86-3.3c-.27-.32,0-.86.49-1.22l1.82-1.19c.55-.36,1.22-.4,1.5-.08L178,102.6C178.25,102.92,178,103.48,177.47,103.84Z" transform="translate(-67.05 -9.73)"/><path class="cls-114" d="M176.9,104.2l-1.58,1c-.53.34-1.18.37-1.44.06L171,101.93c-.26-.31-.05-.82.47-1.16l1.55-1c.52-.34,1.16-.37,1.42-.07l3,3.35C177.65,103.33,177.44,103.86,176.9,104.2Z" transform="translate(-67.05 -9.73)"/><path class="cls-115" d="M189,116.9l-2,1.21a1.37,1.37,0,0,1-1.63,0l-7.25-8.37c-.28-.33-.06-.89.51-1.25l1.89-1.2a1.32,1.32,0,0,1,1.57,0l7.41,8.35C189.81,116,189.58,116.54,189,116.9Z" transform="translate(-67.05 -9.73)"/><path class="cls-116" d="M188.38,117.27l-1.69,1a1.28,1.28,0,0,1-1.55,0l-7.29-8.42c-.27-.32-.06-.85.48-1.19l1.62-1a1.21,1.21,0,0,1,1.48,0l7.44,8.41C189.17,116.37,189,116.92,188.38,117.27Z" transform="translate(-67.05 -9.73)"/><path class="cls-117" d="M199.63,129l-2.1,1.21a1.45,1.45,0,0,1-1.73,0l-7.82-9c-.31-.36-.08-.94.52-1.3l2-1.21a1.43,1.43,0,0,1,1.67,0l8,9C200.51,128,200.27,128.61,199.63,129Z" transform="translate(-67.05 -9.73)"/><path class="cls-118" d="M199,129.34l-1.79,1a1.37,1.37,0,0,1-1.64,0l-7.87-9.09c-.3-.35-.07-.9.49-1.24l1.71-1a1.34,1.34,0,0,1,1.58,0l8,9.09C199.82,128.42,199.59,129,199,129.34Z" transform="translate(-67.05 -9.73)"/></g><polygon class="cls-17" points="349.72 189.42 378.28 207.68 378.28 226.25 349.72 207.99 349.72 189.42"/><polygon class="cls-17" points="387.62 214.55 414.91 233.15 414.91 251.73 387.62 233.12 387.62 214.55"/></g><g id="圖層_9" data-name="圖層 9"><path class="cls-92" d="M381.13,302.66v19.11l71.44,30s2.52,2.09,9.64,1.46,10.49-3.35,10.49-3.35L521.43,315V295.93Z" transform="translate(-67.05 -9.73)"/><polygon class="cls-17" points="321.89 268.47 321.89 292.33 412.78 291.09 412.28 264.89 345.01 271.01 321.89 268.47"/><g class="cls-119"><path class="cls-120" d="M164.46,186.4a119.47,119.47,0,0,0-8.89,15.49c-2.52,5.64.29,18,18.59,25.58l263.3,109.28c8.74,3.63,20.8,1.21,26-1,6.57-2.77,14-6.51,14-6.51Z" transform="translate(-67.05 -9.73)"/><path d="M480.31,327.6l79.89-52.81c10.12-6.69,12.31-16.37,4.58-21.71L329.71,90.78c-17.48-12.07-43.52-12.37-57.19-.31L167.4,183.21c-11.83,10.44-5.1,25.76,14.11,34l266,114.44C456.55,335.54,471.08,333.7,480.31,327.6Z" transform="translate(-67.05 -9.73)"/><path class="cls-121" d="M563.08,253.71,328.81,92.81c-16.59-11.4-41.27-11.65-54.23-.24l-104,91.5c-11.25,9.9-4.94,24.45,13.26,32.32l264.43,114.3c8.58,3.71,22.42,2,31.22-3.86l79.27-52.45C568.41,268,570.46,258.78,563.08,253.71Z" transform="translate(-67.05 -9.73)"/><path class="cls-122" d="M281.16,92.45,172,188.1c-4.57,4-6.29,8.81-5.49,13.62-2.88-6.09-1.8-12.51,4-17.62L274.62,92.53c6.64-5.84,16.51-8.61,26.84-8.32C293.61,85.1,286.41,87.84,281.16,92.45Z" transform="translate(-67.05 -9.73)"/><path class="cls-123" d="M476,327.43l83.53-55.34a21.38,21.38,0,0,0,8-8.71c-.69,3.81-3.61,7.81-8.55,11.08l-79.32,52.47a37.36,37.36,0,0,1-16.15,5.54A36.61,36.61,0,0,0,476,327.43Z" transform="translate(-67.05 -9.73)"/><path class="cls-124" d="M165.06,194.22c1.22,7.17,7.89,14.32,18.83,19.08l267.5,116.58c5.17,2.25,12.25,2.51,19,1.1-7.56,2.23-16.09,2.3-22.08-.29L183.85,216.39C171.28,211,164.39,202.34,165.06,194.22Z" transform="translate(-67.05 -9.73)"/><path class="cls-125" d="M187.88,215.79l36,15.73a7,7,0,0,0-1,.67,4.71,4.71,0,0,0-.72.77l-38.33-16.57c-18.2-7.87-24.51-22.42-13.26-32.32l8.78-7.72a10.44,10.44,0,0,0,2.13,1.71l-6.29,5.62C163.65,193.83,169.3,207.71,187.88,215.79Z" transform="translate(-67.05 -9.73)"/><path class="cls-126" d="M448.88,329.31l-19.1-8.26a6.73,6.73,0,0,1-.68.54,5.58,5.58,0,0,1-.8.46l20.18,8.73c8.57,3.7,22.41,2,31.2-3.87l6.83-4.51a7.47,7.47,0,0,1-1.53-.27l-5,3.27C470.93,331.39,457.69,333.14,448.88,329.31Z" transform="translate(-67.05 -9.73)"/><path class="cls-127" d="M289.2,85.39a52.7,52.7,0,0,1,34.59,8.38L561.87,255.86c4.48,3.05,5.51,7.62,3.52,12.14,3.4-5.18,2.84-10.75-2.31-14.29L328.81,92.81A51.57,51.57,0,0,0,289.2,85.39Z" transform="translate(-67.05 -9.73)"/><path class="cls-128" d="M328.66,96l32.84,22.31a6.56,6.56,0,0,1,2.06-1.67L328.81,92.81c-16.59-11.4-41.27-11.65-54.23-.24l-9.85,8.66a16.53,16.53,0,0,1,3.09,1.06l7.2-6.2C288.28,84.45,311.67,84.44,328.66,96Z" transform="translate(-67.05 -9.73)"/><path class="cls-129" d="M560.64,254.3,544.15,243a8.24,8.24,0,0,0,.9-.54,6.47,6.47,0,0,0,.76-.6l17.43,12c7.39,5.07,5.33,14.29-4.3,20.66l-7.35,4.87a2.47,2.47,0,0,0-.61-.93l5.31-3.56C566.18,268.31,568.27,259.51,560.64,254.3Z" transform="translate(-67.05 -9.73)"/><path class="cls-130" d="M283.36,95.14l-19.51,17c-1.3,1.14-1.06,2.91.56,4.18l3.47,2.73c4,3.12,4.52,7.43,1.32,10.19l-26.12,22.49-25.33,21.81c-3,2.58-8.94,3.09-14.06,1.21l-4.46-1.65c-2.08-.76-4.5-.56-5.7.49L176,189c-8.13,7.1-3.7,17.6,9.46,23.36l266.84,116.8c6.19,2.71,16.28,1.45,22.68-2.79l40.37-26.79,42.12-27.95c7-4.65,8.46-11.35,3.07-15L322.5,95.26C310.44,87.09,292.72,87,283.36,95.14Z" transform="translate(-67.05 -9.73)"/><path class="cls-131" d="M474.33,326c-6,4-15.49,5.16-21.29,2.62L186.37,211.54c-12.3-5.4-16.43-15.26-8.83-21.89l17.51-15.28a3.73,3.73,0,0,1,3.49-.29l4.45,1.63c5.95,2.19,12.73,1.59,16.21-1.4l51.41-44.19c3.71-3.2,3.11-8.13-1.5-11.76l-3.47-2.73c-1-.78-1.14-1.86-.34-2.56l19.49-17c8.75-7.63,25.37-7.52,36.66.1l238.31,161c5,3.41,3.7,9.71-2.87,14.07Z" transform="translate(-67.05 -9.73)"/><path d="M210.49,168.14c-2.38-1.19-3.08-3.24-1.56-4.56s4.69-1.43,7.06-.21,3,3.24,1.51,4.55S212.85,169.33,210.49,168.14Z" transform="translate(-67.05 -9.73)"/><path class="cls-132" d="M215.89,163.45c2.28,1.16,2.92,3.13,1.46,4.39s-4.48,1.37-6.76.22-3-3.13-1.51-4.41S213.61,162.28,215.89,163.45Z" transform="translate(-67.05 -9.73)"/><path class="cls-133" d="M210.69,168c-2.2-1.11-2.85-3-1.44-4.23s4.35-1.32,6.54-.2,2.8,3,1.4,4.22S212.88,169.07,210.69,168Z" transform="translate(-67.05 -9.73)"/><path class="cls-134" d="M215,164.26c1.48.76,1.9,2,.95,2.86a4.33,4.33,0,0,1-4.39.13c-1.49-.75-1.93-2-1-2.86S213.48,163.51,215,164.26Z" transform="translate(-67.05 -9.73)"/><path class="cls-135" d="M213.57,163.2c.74.38,1,1,.48,1.43a2.17,2.17,0,0,1-2.19.07c-.74-.38-1-1-.49-1.43A2.19,2.19,0,0,1,213.57,163.2Z" transform="translate(-67.05 -9.73)"/><path class="cls-136" d="M213.92,165.16c.6.3.77.81.39,1.14a1.76,1.76,0,0,1-1.76.06c-.59-.3-.76-.81-.39-1.14A1.74,1.74,0,0,1,213.92,165.16Z" transform="translate(-67.05 -9.73)"/><path d="M218.8,160.93c-1.39-.71-1.79-1.93-.89-2.72a4,4,0,0,1,4.15-.11c1.39.72,1.77,1.94.87,2.72A4,4,0,0,1,218.8,160.93Z" transform="translate(-67.05 -9.73)"/><path class="cls-137" d="M221.9,158.24c1.24.65,1.59,1.74.78,2.44a3.65,3.65,0,0,1-3.72.11c-1.25-.65-1.6-1.74-.79-2.45A3.65,3.65,0,0,1,221.9,158.24Z" transform="translate(-67.05 -9.73)"/><path class="cls-138" d="M221.12,158.91c.59.31.76.83.37,1.16a1.74,1.74,0,0,1-1.76.05c-.59-.31-.75-.82-.37-1.16A1.74,1.74,0,0,1,221.12,158.91Z" transform="translate(-67.05 -9.73)"/><path class="cls-139" d="M220.3,238l-1.25,2.16a1.89,1.89,0,0,1-2.35.46L207,236.57c-1-.4-1.45-1.26-1.1-1.92l1.18-2.23a1.86,1.86,0,0,1,2.39-.48l9.8,4.18C220.22,236.52,220.67,237.38,220.3,238Z" transform="translate(-67.05 -9.73)"/><path class="cls-140" d="M219.92,238.69l-1.07,1.84a1.8,1.8,0,0,1-2.23.43l-9.85-4.14c-.9-.38-1.37-1.19-1-1.82l1-1.9a1.78,1.78,0,0,1,2.27-.46l9.95,4.24C219.84,237.26,220.27,238.07,219.92,238.69Z" transform="translate(-67.05 -9.73)"/><path class="cls-141" d="M254.79,252.7l-1.43,2a2,2,0,0,1-2.31.41l-21.39-9c-.9-.38-1.32-1.2-.94-1.82l1.3-2.11a2,2,0,0,1,2.37-.45L254,251C254.87,251.32,255.22,252.1,254.79,252.7Z" transform="translate(-67.05 -9.73)"/><path class="cls-142" d="M254.35,253.3,253.14,255a1.88,1.88,0,0,1-2.19.39l-21.54-9c-.85-.36-1.25-1.13-.89-1.72l1.11-1.8a1.84,1.84,0,0,1,2.24-.42l21.74,9.25C254.43,252,254.76,252.74,254.35,253.3Z" transform="translate(-67.05 -9.73)"/><path class="cls-143" d="M282,264.27l-1.55,1.83a2.1,2.1,0,0,1-2.28.39l-20-8.4c-.84-.35-1.18-1.11-.75-1.69l1.45-1.95a2,2,0,0,1,2.33-.42l20.16,8.61C282.19,263,282.46,263.71,282,264.27Z" transform="translate(-67.05 -9.73)"/><path class="cls-144" d="M281.52,264.83l-1.32,1.56a2,2,0,0,1-2.16.36l-20.1-8.44c-.8-.33-1.12-1.05-.71-1.6l1.23-1.67a1.93,1.93,0,0,1,2.21-.39l20.27,8.64C281.71,263.61,282,264.3,281.52,264.83Z" transform="translate(-67.05 -9.73)"/></g></g><g id="圖層_5" data-name="圖層 5"><path class="cls-145" d="M534.06,486.74s-.13-1-1-.95-8.52-1.06-9.69.95-2.11,5.93,13,8.41,18,2.86,19.66,1.17.23-8.31-.51-8.61-1.78-.8-1.78-.8l-9.13,2.25Z" transform="translate(-67.05 -9.73)"/><path class="cls-146" d="M554.37,486.07s1,2.95.51,3.26-3,3.05-13.23,1.73-12.92-1.63-11.24-2.95a6,6,0,0,1,2.8-1.43l12.61.8Z" transform="translate(-67.05 -9.73)"/><path class="cls-145" d="M504.34,493.26s-.12-1-1-.95-8.52-1.05-9.7.95-2.1,5.94,13,8.42,18,2.85,19.67,1.17.23-8.31-.52-8.62-1.78-.79-1.78-.79l-9.13,2.24Z" transform="translate(-67.05 -9.73)"/><path class="cls-146" d="M524.66,492.6s1,2.95.51,3.25-2.95,3-13.23,1.73S499,496,500.69,494.63a6,6,0,0,1,2.8-1.42l12.61.79Z" transform="translate(-67.05 -9.73)"/><path class="cls-147" d="M533.27,359.84,532.21,373s4,34.33,4.45,36.24,4,6.57,4,8.06,5.3,70.15,5.3,70.15a9.94,9.94,0,0,0,4.49,1,10.5,10.5,0,0,0,4.26-1.33s5.17-38.12,4.39-49.41a57.77,57.77,0,0,0-4.09-18.5s3.67-33.49,4.17-46.93,1.87-17.52,1.67-21,2.14-15.58-4.67-20.64S533.27,359.84,533.27,359.84Z" transform="translate(-67.05 -9.73)"/><path class="cls-148" d="M559.77,334.19s2.11,19.08-7.85,24.8-13.14,4.45-13.14,4.45S529.24,392.05,524,402s-7.85,16.32-7.85,16.32a51,51,0,0,1,7.63,24.16c.85,14.41,1.91,49.81,1.91,49.81s-.21,2.33-3.81,2.75A8.69,8.69,0,0,1,516.1,494s-14.2-72.7-15.26-78.21,3.82-34.76,6.36-42,8.45-23.32,8.9-26.4,2.33-10.27,2.33-10.27Z" transform="translate(-67.05 -9.73)"/><path class="cls-149" d="M551.82,263.06s5.32.83,7.78,5.42,12.44,22.15,13.09,27.45-1.63,8.71-9.82,14.94-11.13,9.83-11.13,9.83l-3.28-2.94s7.21-12.28,10-14.9a19.82,19.82,0,0,0,3.81-4.59s-13-15.88-15.11-24.72S551.82,263.06,551.82,263.06Z" transform="translate(-67.05 -9.73)"/><path class="cls-150" d="M517.13,274.58s8.16-6.23,16.29-8.63,19.81-4.26,21.79-2.89a21.49,21.49,0,0,1,2.66,2.05s-10.56,34-9.31,42.19,6.78,16.21,11.21,20.7,5.92,5.86,4.2,7-3.34,3-6.33,2.76-6-.46-8.73,1.49-2.3,2-4.72,2.65-3.56.23-4.94.92-.81,1.61-4.14,2.53-9,.46-13.22-1.15-9,2.31-10.58,1.62,2.07-7.14,3.11-10,3.44-15.11,3.44-15.11Z" transform="translate(-67.05 -9.73)"/><path class="cls-149" d="M512,321.54s-4-48.87,6.87-47.19,6.55,23.67,5.44,35.71-1.15,14.94-2.92,17.15-14.77,7.62-24.21,9.75-11.57,2.36-13.26,3.6-5.07,5.79-7,6-1.58,0-1.58,0a4.08,4.08,0,0,1-2.23.71l-.94-.14a4.27,4.27,0,0,1-1.94.16c-.64-.23-3.81.78-4.45-.66s10.21-3.74,10.13-6.11-5.17-4.68-3.23-6.19,4.89,3.67,8.05,2.73,21.64-11.28,25.88-13.22S512,321.54,512,321.54Z" transform="translate(-67.05 -9.73)"/><path class="cls-151" d="M519.91,230a8.54,8.54,0,0,0-1,4.58c.08,2.91,1.24,4.15.5,4.9s-2.58,2.5-2.24,3.08,1.45.66,1.35,1.41-.27,1.58.39,4.57-1.08,7.23,1,7.32,5.48-2,5.48-2l.34-21.2Z" transform="translate(-67.05 -9.73)"/><path class="cls-152" d="M547,226.84c4.56,5,2.85,5.13,3.71,6.69s1.56-1,2.7,4.42-1.28,6.55,0,9.4,3,3.84,3.28,7.4-2.57,8.26-1.14,10.83,6.55,6.83,6.69,12.39-6.41,5.55-7.83,8.11-5,10.26-12,9.83-4.85-1.14-8-1.57-8.69-.42-9.26-6,5.56-11.53,5-14.95-5-5.32-5.7-14.2-.57-14.71-1.28-17.27.85-4.56-.57-7.27-4.19-2.61-3.7-5.14,4.55-6.24,9.27-7C534.52,221.45,542.47,221.86,547,226.84Z" transform="translate(-67.05 -9.73)"/></g></g></svg>