<svg id="圖層_1" data-name="圖層 1" xmlns="http://www.w3.org/2000/svg" xmlns:xlink="http://www.w3.org/1999/xlink" viewBox="0 0 163.55 75.03"><defs><style>.cls-1{fill:#a0d3b4;}.cls-2{fill:url(#未命名漸層_14);}.cls-3{fill:#f39800;}.cls-4{fill:url(#未命名漸層_43);}.cls-5{fill:url(#未命名漸層_25);}.cls-6{fill:url(#未命名漸層_59);}.cls-7{fill:#f7cf6d;}.cls-8{fill:url(#未命名漸層_31);}.cls-9{fill:#bf8ebe;}.cls-10{fill:#f3aabd;}.cls-11{fill:url(#未命名漸層_31-2);}</style><linearGradient id="未命名漸層_14" x1="20.19" y1="21.2" x2="10.27" y2="57.29" gradientUnits="userSpaceOnUse"><stop offset="0" stop-color="#48b791"/><stop offset="0.32" stop-color="#0098a3"/><stop offset="0.66" stop-color="#285b96"/><stop offset="1" stop-color="#292b80"/></linearGradient><linearGradient id="未命名漸層_43" x1="71" y1="48.7" x2="110.14" y2="48.7" gradientUnits="userSpaceOnUse"><stop offset="0" stop-color="#ef899f"/><stop offset="0.01" stop-color="#ea859f"/><stop offset="0.08" stop-color="#cf749f"/><stop offset="0.14" stop-color="#bc689f"/><stop offset="0.21" stop-color="#b1609f"/><stop offset="0.28" stop-color="#ad5e9f"/><stop offset="0.67" stop-color="#582a8b"/><stop offset="1" stop-color="#3e2478"/></linearGradient><linearGradient id="未命名漸層_25" x1="32.64" y1="25.4" x2="22.09" y2="63.77" gradientUnits="userSpaceOnUse"><stop offset="0" stop-color="#00b5d7"/><stop offset="0.32" stop-color="#009ecd"/><stop offset="0.66" stop-color="#005da9"/><stop offset="1" stop-color="#183075"/></linearGradient><linearGradient id="未命名漸層_59" x1="113.83" y1="48.69" x2="153.2" y2="48.69" gradientUnits="userSpaceOnUse"><stop offset="0" stop-color="#e50083"/><stop offset="0.03" stop-color="#d20580"/><stop offset="0.09" stop-color="#b70b7c"/><stop offset="0.15" stop-color="#a40f78"/><stop offset="0.22" stop-color="#991277"/><stop offset="0.28" stop-color="#951376"/><stop offset="0.67" stop-color="#771f6f"/><stop offset="1" stop-color="#332a54"/></linearGradient><linearGradient id="未命名漸層_31" x1="64.69" y1="36.28" x2="55.78" y2="68.69" gradientUnits="userSpaceOnUse"><stop offset="0" stop-color="#e6463b"/><stop offset="0.32" stop-color="#a9305b"/><stop offset="0.66" stop-color="#7f236a"/><stop offset="1" stop-color="#342a63"/></linearGradient><linearGradient id="未命名漸層_31-2" x1="67.49" y1="28.23" x2="67.05" y2="29.84" xlink:href="#未命名漸層_31"/></defs><path class="cls-1" d="M21.06,34.05A5.35,5.35,0,1,1,15.7,39.4,5.36,5.36,0,0,1,21.06,34.05Z"/><path class="cls-2" d="M10.35,61.73V13.3h0a5.36,5.36,0,0,1,10.71,0V34.05a5.35,5.35,0,1,0,0,10.7v17a5.36,5.36,0,1,1-10.71,0Z"/><path class="cls-3" d="M56.63,29.76a5.12,5.12,0,0,1,.09-1,5.35,5.35,0,0,0,10.53,0,5.12,5.12,0,0,1,.09,1,5.36,5.36,0,1,1-10.71,0Z"/><path class="cls-4" d="M99.74,46.67a5.28,5.28,0,0,1-.81-1.4h0C98.13,43.22,96.05,41,90.81,41c-9.75,0-9.33,7.71-9.33,7.71s-.35,7.69,9.33,7.69c8,0,8.6-5.2,8.58-7.06a5.35,5.35,0,0,0,10.66-.64S112.57,67.1,90.81,67.1,71,48.69,71,48.69s-.65-18.4,19.77-18.4c20.24,0,18.5,12.81,18.46,13h0a5.37,5.37,0,0,1-.39,2,5.36,5.36,0,0,0-9.14,1.32Z"/><path class="cls-5" d="M15.7,7.94H31.8S53.26,6.8,53.26,26.35,31.8,44.75,31.8,44.75H21.06a5.35,5.35,0,0,0,0-10.7H31.8s10.75.69,10.75-7.7-10.75-7.7-10.75-7.7H21.06V13.29A5.36,5.36,0,0,0,15.7,7.94Z"/><path class="cls-6" d="M128.26,31a5.2,5.2,0,0,1,2.09.42h0a5.35,5.35,0,0,0,1.21,9.18,5.21,5.21,0,0,1-1.7.89,7.17,7.17,0,0,0-5.25,7.22s-.68,7.7,9,7.7,9.14-7.7,9.14-7.7.61-7.7-9.14-7.7a5.36,5.36,0,0,0,0-10.71c21.1,0,19.56,18.41,19.56,18.41s1.27,18.4-19.56,18.4-19.78-18.4-19.78-18.4C113.84,30.52,128.26,31,128.26,31Z"/><path class="cls-7" d="M56.72,28.8a5.35,5.35,0,0,1,10.53,0,5.35,5.35,0,0,1-10.53,0Z"/><path class="cls-8" d="M56.63,29.76a5.36,5.36,0,1,0,10.71,0v32a5.36,5.36,0,0,1-10.71,0Z"/><path class="cls-9" d="M133.62,30.28a5.37,5.37,0,1,1-3.27,1.12A5.36,5.36,0,0,1,133.62,30.28Z"/><path class="cls-10" d="M99.39,49.33c0-.4,0-.64,0-.64A6.71,6.71,0,0,0,99.4,48h0a5.19,5.19,0,0,1,.34-1.3,5.36,5.36,0,0,1,9.14-1.32,5.26,5.26,0,0,1,1.17,3.34,5.35,5.35,0,0,1-10.66.64Z"/><path class="cls-7" d="M62,22.48a5.36,5.36,0,0,1,5.35,5.35,5.15,5.15,0,0,1-.09,1,5.35,5.35,0,0,0-10.53,0,5.15,5.15,0,0,1-.09-1A5.36,5.36,0,0,1,62,22.48Z"/><path class="cls-11" d="M67.34,27.83v1.93a5.12,5.12,0,0,0-.09-1A5.15,5.15,0,0,0,67.34,27.83Z"/></svg>