<svg id="圖層_1" data-name="圖層 1" xmlns="http://www.w3.org/2000/svg" xmlns:xlink="http://www.w3.org/1999/xlink" viewBox="0 0 50 50"><defs><style>.cls-1{fill:#fff;}.cls-2{fill:url(#未命名漸層_25);}.cls-3{fill:url(#未命名漸層_14);}.cls-4{fill:#a0d3b4;}</style><linearGradient id="未命名漸層_25" x1="25.53" y1="18.25" x2="18.78" y2="42.82" gradientUnits="userSpaceOnUse"><stop offset="0" stop-color="#00b5d7"/><stop offset="0.32" stop-color="#009ecd"/><stop offset="0.66" stop-color="#005da9"/><stop offset="1" stop-color="#183075"/></linearGradient><linearGradient id="未命名漸層_14" x1="17.56" y1="15.56" x2="11.21" y2="38.67" gradientUnits="userSpaceOnUse"><stop offset="0" stop-color="#48b791"/><stop offset="0.32" stop-color="#0098a3"/><stop offset="0.66" stop-color="#285b96"/><stop offset="1" stop-color="#292b80"/></linearGradient></defs><rect class="cls-1" width="50" height="50" rx="9"/><path class="cls-2" d="M18.12,30.64a3.43,3.43,0,1,0,0-6.85H25s6.88.44,6.88-4.93S25,13.92,25,13.92H18.12V10.49a3.43,3.43,0,0,0-3.43-3.42H25s13.74-.73,13.74,11.79S25,30.64,25,30.64Z"/><path class="cls-3" d="M18.12,10.49v13.3a3.43,3.43,0,1,0,0,6.85V41.51a3.43,3.43,0,0,1-6.86,0h0v-31a3.43,3.43,0,0,1,6.86,0Z"/><path class="cls-4" d="M18.12,23.79a3.43,3.43,0,1,1-3.43,3.42A3.43,3.43,0,0,1,18.12,23.79Z"/></svg>